<svg width="700" height="350" viewBox="0 0 700 350" fill="none" xmlns="http://www.w3.org/2000/svg">
<rect width="700" height="350" rx="8" fill="#DDEFE6"/>
<path d="M35.6399 67V41.8H46.6559C49.3919 41.8 51.7919 42.328 53.8559 43.384C55.9199 44.44 57.5279 45.904 58.6799 47.776C59.8319 49.648 60.4079 51.856 60.4079 54.4C60.4079 56.92 59.8319 59.128 58.6799 61.024C57.5279 62.896 55.9199 64.36 53.8559 65.416C51.7919 66.472 49.3919 67 46.6559 67H35.6399ZM40.3199 63.04H46.4399C48.3359 63.04 49.9679 62.68 51.3359 61.96C52.7279 61.24 53.7959 60.232 54.5399 58.936C55.3079 57.64 55.6919 56.128 55.6919 54.4C55.6919 52.648 55.3079 51.136 54.5399 49.864C53.7959 48.568 52.7279 47.56 51.3359 46.84C49.9679 46.12 48.3359 45.76 46.4399 45.76H40.3199V63.04ZM73.986 67.252C71.85 67.252 69.978 66.832 68.37 65.992C66.786 65.128 65.55 63.952 64.662 62.464C63.798 60.976 63.366 59.284 63.366 57.388C63.366 55.468 63.786 53.776 64.626 52.312C65.49 50.824 66.666 49.66 68.154 48.82C69.666 47.98 71.382 47.56 73.302 47.56C75.174 47.56 76.842 47.968 78.306 48.784C79.77 49.6 80.922 50.752 81.762 52.24C82.602 53.728 83.022 55.48 83.022 57.496C83.022 57.688 83.01 57.904 82.986 58.144C82.986 58.384 82.974 58.612 82.95 58.828H66.93V55.84H80.574L78.81 56.776C78.834 55.672 78.606 54.7 78.126 53.86C77.646 53.02 76.986 52.36 76.146 51.88C75.33 51.4 74.382 51.16 73.302 51.16C72.198 51.16 71.226 51.4 70.386 51.88C69.57 52.36 68.922 53.032 68.442 53.896C67.986 54.736 67.758 55.732 67.758 56.884V57.604C67.758 58.756 68.022 59.776 68.55 60.664C69.078 61.552 69.822 62.236 70.782 62.716C71.742 63.196 72.846 63.436 74.094 63.436C75.174 63.436 76.146 63.268 77.01 62.932C77.874 62.596 78.642 62.068 79.314 61.348L81.726 64.12C80.862 65.128 79.77 65.908 78.45 66.46C77.154 66.988 75.666 67.252 73.986 67.252ZM93.2846 67.252C91.6766 67.252 90.1286 67.048 88.6406 66.64C87.1766 66.208 86.0126 65.692 85.1486 65.092L86.8766 61.672C87.7406 62.224 88.7726 62.68 89.9726 63.04C91.1726 63.4 92.3726 63.58 93.5726 63.58C94.9886 63.58 96.0086 63.388 96.6326 63.004C97.2806 62.62 97.6046 62.104 97.6046 61.456C97.6046 60.928 97.3886 60.532 96.9566 60.268C96.5246 59.98 95.9606 59.764 95.2646 59.62C94.5686 59.476 93.7886 59.344 92.9246 59.224C92.0846 59.104 91.2326 58.948 90.3686 58.756C89.5286 58.54 88.7606 58.24 88.0646 57.856C87.3686 57.448 86.8046 56.908 86.3726 56.236C85.9406 55.564 85.7246 54.676 85.7246 53.572C85.7246 52.348 86.0726 51.292 86.7686 50.404C87.4646 49.492 88.4366 48.796 89.6846 48.316C90.9566 47.812 92.4566 47.56 94.1846 47.56C95.4806 47.56 96.7886 47.704 98.1086 47.992C99.4286 48.28 100.521 48.688 101.385 49.216L99.6566 52.636C98.7446 52.084 97.8206 51.712 96.8846 51.52C95.9726 51.304 95.0606 51.196 94.1486 51.196C92.7806 51.196 91.7606 51.4 91.0886 51.808C90.4406 52.216 90.1166 52.732 90.1166 53.356C90.1166 53.932 90.3326 54.364 90.7646 54.652C91.1966 54.94 91.7606 55.168 92.4566 55.336C93.1526 55.504 93.9206 55.648 94.7606 55.768C95.6246 55.864 96.4766 56.02 97.3166 56.236C98.1566 56.452 98.9246 56.752 99.6206 57.136C100.341 57.496 100.917 58.012 101.349 58.684C101.781 59.356 101.997 60.232 101.997 61.312C101.997 62.512 101.637 63.556 100.917 64.444C100.221 65.332 99.2246 66.028 97.9286 66.532C96.6326 67.012 95.0846 67.252 93.2846 67.252ZM114.908 67.252C112.772 67.252 110.9 66.832 109.292 65.992C107.708 65.128 106.472 63.952 105.584 62.464C104.72 60.976 104.288 59.284 104.288 57.388C104.288 55.468 104.708 53.776 105.548 52.312C106.412 50.824 107.588 49.66 109.076 48.82C110.588 47.98 112.304 47.56 114.224 47.56C116.096 47.56 117.764 47.968 119.228 48.784C120.692 49.6 121.844 50.752 122.684 52.24C123.524 53.728 123.944 55.48 123.944 57.496C123.944 57.688 123.932 57.904 123.908 58.144C123.908 58.384 123.896 58.612 123.872 58.828H107.852V55.84H121.496L119.732 56.776C119.756 55.672 119.528 54.7 119.048 53.86C118.568 53.02 117.908 52.36 117.068 51.88C116.252 51.4 115.304 51.16 114.224 51.16C113.12 51.16 112.148 51.4 111.308 51.88C110.492 52.36 109.844 53.032 109.364 53.896C108.908 54.736 108.68 55.732 108.68 56.884V57.604C108.68 58.756 108.944 59.776 109.472 60.664C110 61.552 110.744 62.236 111.704 62.716C112.664 63.196 113.768 63.436 115.016 63.436C116.096 63.436 117.068 63.268 117.932 62.932C118.796 62.596 119.564 62.068 120.236 61.348L122.648 64.12C121.784 65.128 120.692 65.908 119.372 66.46C118.076 66.988 116.588 67.252 114.908 67.252ZM139.174 47.56C140.71 47.56 142.078 47.86 143.278 48.46C144.502 49.06 145.462 49.984 146.158 51.232C146.854 52.456 147.202 54.04 147.202 55.984V67H142.702V56.56C142.702 54.856 142.294 53.584 141.478 52.744C140.686 51.904 139.57 51.484 138.13 51.484C137.074 51.484 136.138 51.7 135.322 52.132C134.506 52.564 133.87 53.212 133.414 54.076C132.982 54.916 132.766 55.984 132.766 57.28V67H128.266V47.776H132.55V52.96L131.794 51.376C132.466 50.152 133.438 49.216 134.71 48.568C136.006 47.896 137.494 47.56 139.174 47.56ZM157.671 67L149.427 47.776H154.107L161.199 64.732H158.895L166.239 47.776H170.559L162.315 67H157.671ZM181.485 67.252C179.517 67.252 177.765 66.832 176.229 65.992C174.693 65.128 173.481 63.952 172.593 62.464C171.705 60.976 171.261 59.284 171.261 57.388C171.261 55.468 171.705 53.776 172.593 52.312C173.481 50.824 174.693 49.66 176.229 48.82C177.765 47.98 179.517 47.56 181.485 47.56C183.477 47.56 185.241 47.98 186.777 48.82C188.337 49.66 189.549 50.812 190.413 52.276C191.301 53.74 191.745 55.444 191.745 57.388C191.745 59.284 191.301 60.976 190.413 62.464C189.549 63.952 188.337 65.128 186.777 65.992C185.241 66.832 183.477 67.252 181.485 67.252ZM181.485 63.4C182.589 63.4 183.573 63.16 184.437 62.68C185.301 62.2 185.973 61.504 186.453 60.592C186.957 59.68 187.209 58.612 187.209 57.388C187.209 56.14 186.957 55.072 186.453 54.184C185.973 53.272 185.301 52.576 184.437 52.096C183.573 51.616 182.601 51.376 181.521 51.376C180.417 51.376 179.433 51.616 178.569 52.096C177.729 52.576 177.057 53.272 176.553 54.184C176.049 55.072 175.797 56.14 175.797 57.388C175.797 58.612 176.049 59.68 176.553 60.592C177.057 61.504 177.729 62.2 178.569 62.68C179.433 63.16 180.405 63.4 181.485 63.4ZM196.048 67V40.288H200.548V67H196.048ZM211.566 67L203.322 47.776H208.002L215.094 64.732H212.79L220.134 47.776H224.454L216.21 67H211.566ZM227.266 67V47.776H231.766V67H227.266ZM229.534 44.608C228.694 44.608 227.998 44.344 227.446 43.816C226.918 43.288 226.654 42.652 226.654 41.908C226.654 41.14 226.918 40.504 227.446 40C227.998 39.472 228.694 39.208 229.534 39.208C230.374 39.208 231.058 39.46 231.586 39.964C232.138 40.444 232.414 41.056 232.414 41.8C232.414 42.592 232.15 43.264 231.622 43.816C231.094 44.344 230.398 44.608 229.534 44.608ZM261.937 47.56C263.473 47.56 264.829 47.86 266.005 48.46C267.205 49.06 268.141 49.984 268.813 51.232C269.485 52.456 269.821 54.04 269.821 55.984V67H265.321V56.56C265.321 54.856 264.949 53.584 264.205 52.744C263.461 51.904 262.393 51.484 261.001 51.484C260.017 51.484 259.141 51.7 258.373 52.132C257.629 52.564 257.041 53.2 256.609 54.04C256.201 54.88 255.997 55.948 255.997 57.244V67H251.497V56.56C251.497 54.856 251.125 53.584 250.381 52.744C249.637 51.904 248.569 51.484 247.177 51.484C246.193 51.484 245.317 51.7 244.549 52.132C243.805 52.564 243.217 53.2 242.785 54.04C242.377 54.88 242.173 55.948 242.173 57.244V67H237.673V47.776H241.957V52.888L241.201 51.376C241.849 50.128 242.785 49.18 244.009 48.532C245.257 47.884 246.673 47.56 248.257 47.56C250.057 47.56 251.617 48.004 252.937 48.892C254.281 49.78 255.169 51.124 255.601 52.924L253.837 52.312C254.461 50.872 255.493 49.72 256.933 48.856C258.373 47.992 260.041 47.56 261.937 47.56ZM284.642 67.252C282.506 67.252 280.634 66.832 279.026 65.992C277.442 65.128 276.206 63.952 275.318 62.464C274.454 60.976 274.022 59.284 274.022 57.388C274.022 55.468 274.442 53.776 275.282 52.312C276.146 50.824 277.322 49.66 278.81 48.82C280.322 47.98 282.038 47.56 283.958 47.56C285.83 47.56 287.498 47.968 288.962 48.784C290.426 49.6 291.578 50.752 292.418 52.24C293.258 53.728 293.678 55.48 293.678 57.496C293.678 57.688 293.666 57.904 293.642 58.144C293.642 58.384 293.63 58.612 293.606 58.828H277.586V55.84H291.23L289.466 56.776C289.49 55.672 289.262 54.7 288.782 53.86C288.302 53.02 287.642 52.36 286.802 51.88C285.986 51.4 285.038 51.16 283.958 51.16C282.854 51.16 281.882 51.4 281.042 51.88C280.226 52.36 279.578 53.032 279.098 53.896C278.642 54.736 278.414 55.732 278.414 56.884V57.604C278.414 58.756 278.678 59.776 279.206 60.664C279.734 61.552 280.478 62.236 281.438 62.716C282.398 63.196 283.502 63.436 284.75 63.436C285.83 63.436 286.802 63.268 287.666 62.932C288.53 62.596 289.298 62.068 289.97 61.348L292.382 64.12C291.518 65.128 290.426 65.908 289.106 66.46C287.81 66.988 286.322 67.252 284.642 67.252ZM308.909 47.56C310.445 47.56 311.813 47.86 313.013 48.46C314.237 49.06 315.197 49.984 315.893 51.232C316.589 52.456 316.937 54.04 316.937 55.984V67H312.437V56.56C312.437 54.856 312.029 53.584 311.213 52.744C310.421 51.904 309.305 51.484 307.865 51.484C306.809 51.484 305.873 51.7 305.057 52.132C304.241 52.564 303.605 53.212 303.149 54.076C302.717 54.916 302.501 55.984 302.501 57.28V67H298.001V47.776H302.285V52.96L301.529 51.376C302.201 50.152 303.173 49.216 304.445 48.568C305.741 47.896 307.229 47.56 308.909 47.56ZM329.881 67.252C327.769 67.252 326.137 66.712 324.985 65.632C323.833 64.528 323.257 62.908 323.257 60.772V43.528H327.757V60.664C327.757 61.576 327.985 62.284 328.441 62.788C328.921 63.292 329.581 63.544 330.421 63.544C331.429 63.544 332.269 63.28 332.941 62.752L334.201 65.956C333.673 66.388 333.025 66.712 332.257 66.928C331.489 67.144 330.697 67.252 329.881 67.252ZM320.089 51.52V47.92H332.905V51.52H320.089ZM345.91 67.252C343.942 67.252 342.19 66.832 340.654 65.992C339.118 65.128 337.906 63.952 337.018 62.464C336.13 60.976 335.686 59.284 335.686 57.388C335.686 55.468 336.13 53.776 337.018 52.312C337.906 50.824 339.118 49.66 340.654 48.82C342.19 47.98 343.942 47.56 345.91 47.56C347.902 47.56 349.666 47.98 351.202 48.82C352.762 49.66 353.974 50.812 354.838 52.276C355.726 53.74 356.17 55.444 356.17 57.388C356.17 59.284 355.726 60.976 354.838 62.464C353.974 63.952 352.762 65.128 351.202 65.992C349.666 66.832 347.902 67.252 345.91 67.252ZM345.91 63.4C347.014 63.4 347.998 63.16 348.862 62.68C349.726 62.2 350.398 61.504 350.878 60.592C351.382 59.68 351.634 58.612 351.634 57.388C351.634 56.14 351.382 55.072 350.878 54.184C350.398 53.272 349.726 52.576 348.862 52.096C347.998 51.616 347.026 51.376 345.946 51.376C344.842 51.376 343.858 51.616 342.994 52.096C342.154 52.576 341.482 53.272 340.978 54.184C340.474 55.072 340.222 56.14 340.222 57.388C340.222 58.612 340.474 59.68 340.978 60.592C341.482 61.504 342.154 62.2 342.994 62.68C343.858 63.16 344.83 63.4 345.91 63.4ZM376.795 67L368.443 41.8H373.303L380.755 64.588H378.343L386.083 41.8H390.403L397.927 64.588H395.587L403.219 41.8H407.683L399.331 67H394.363L387.487 46.444H388.783L381.799 67H376.795ZM418.658 67.252C416.522 67.252 414.65 66.832 413.042 65.992C411.458 65.128 410.222 63.952 409.334 62.464C408.47 60.976 408.038 59.284 408.038 57.388C408.038 55.468 408.458 53.776 409.298 52.312C410.162 50.824 411.338 49.66 412.826 48.82C414.338 47.98 416.054 47.56 417.974 47.56C419.846 47.56 421.514 47.968 422.978 48.784C424.442 49.6 425.594 50.752 426.434 52.24C427.274 53.728 427.694 55.48 427.694 57.496C427.694 57.688 427.682 57.904 427.658 58.144C427.658 58.384 427.646 58.612 427.622 58.828H411.602V55.84H425.246L423.482 56.776C423.506 55.672 423.278 54.7 422.798 53.86C422.318 53.02 421.658 52.36 420.818 51.88C420.002 51.4 419.054 51.16 417.974 51.16C416.87 51.16 415.898 51.4 415.058 51.88C414.242 52.36 413.594 53.032 413.114 53.896C412.658 54.736 412.43 55.732 412.43 56.884V57.604C412.43 58.756 412.694 59.776 413.222 60.664C413.75 61.552 414.494 62.236 415.454 62.716C416.414 63.196 417.518 63.436 418.766 63.436C419.846 63.436 420.818 63.268 421.682 62.932C422.546 62.596 423.314 62.068 423.986 61.348L426.398 64.12C425.534 65.128 424.442 65.908 423.122 66.46C421.826 66.988 420.338 67.252 418.658 67.252ZM442.672 67.252C441.04 67.252 439.588 66.892 438.316 66.172C437.044 65.452 436.036 64.372 435.292 62.932C434.572 61.468 434.212 59.62 434.212 57.388C434.212 55.132 434.584 53.284 435.328 51.844C436.096 50.404 437.116 49.336 438.388 48.64C439.684 47.92 441.112 47.56 442.672 47.56C444.568 47.56 446.236 47.968 447.676 48.784C449.14 49.6 450.292 50.74 451.132 52.204C451.996 53.668 452.428 55.396 452.428 57.388C452.428 59.38 451.996 61.108 451.132 62.572C450.292 64.036 449.14 65.188 447.676 66.028C446.236 66.844 444.568 67.252 442.672 67.252ZM432.016 67V40.288H436.516V52.24L436.156 57.352L436.3 62.464V67H432.016ZM442.168 63.4C443.248 63.4 444.208 63.16 445.048 62.68C445.912 62.2 446.596 61.504 447.1 60.592C447.604 59.68 447.856 58.612 447.856 57.388C447.856 56.14 447.604 55.072 447.1 54.184C446.596 53.272 445.912 52.576 445.048 52.096C444.208 51.616 443.248 51.376 442.168 51.376C441.088 51.376 440.116 51.616 439.252 52.096C438.388 52.576 437.704 53.272 437.2 54.184C436.696 55.072 436.444 56.14 436.444 57.388C436.444 58.612 436.696 59.68 437.2 60.592C437.704 61.504 438.388 62.2 439.252 62.68C440.116 63.16 441.088 63.4 442.168 63.4Z" fill="black"/>
<path d="M37.0792 127V114.74H32.2792V113H43.8592V114.74H39.0592V127H37.0792ZM49.9636 127.12C49.0569 127.12 48.2569 126.953 47.5636 126.62C46.8836 126.287 46.3503 125.78 45.9636 125.1C45.5903 124.407 45.4036 123.54 45.4036 122.5V116.4H47.3236V122.28C47.3236 123.32 47.5703 124.1 48.0636 124.62C48.5703 125.14 49.2769 125.4 50.1836 125.4C50.8503 125.4 51.4303 125.267 51.9236 125C52.4169 124.72 52.7969 124.32 53.0636 123.8C53.3303 123.267 53.4636 122.627 53.4636 121.88V116.4H55.3836V127H53.5636V124.14L53.8636 124.9C53.5169 125.607 52.9969 126.153 52.3036 126.54C51.6103 126.927 50.8303 127.12 49.9636 127.12ZM59.0388 127V116.4H60.8788V119.28L60.6988 118.56C60.9921 117.827 61.4854 117.267 62.1788 116.88C62.8721 116.493 63.7254 116.3 64.7388 116.3V118.16C64.6588 118.147 64.5788 118.14 64.4988 118.14C64.4321 118.14 64.3654 118.14 64.2988 118.14C63.2721 118.14 62.4588 118.447 61.8588 119.06C61.2588 119.673 60.9588 120.56 60.9588 121.72V127H59.0388ZM80.3652 116.3C81.2185 116.3 81.9718 116.467 82.6252 116.8C83.2785 117.133 83.7852 117.64 84.1452 118.32C84.5185 119 84.7052 119.86 84.7052 120.9V127H82.7852V121.12C82.7852 120.093 82.5452 119.32 82.0652 118.8C81.5852 118.28 80.9118 118.02 80.0452 118.02C79.4052 118.02 78.8452 118.153 78.3652 118.42C77.8852 118.687 77.5118 119.08 77.2452 119.6C76.9918 120.12 76.8652 120.767 76.8652 121.54V127H74.9452V121.12C74.9452 120.093 74.7052 119.32 74.2252 118.8C73.7585 118.28 73.0852 118.02 72.2052 118.02C71.5785 118.02 71.0252 118.153 70.5452 118.42C70.0652 118.687 69.6918 119.08 69.4252 119.6C69.1585 120.12 69.0252 120.767 69.0252 121.54V127H67.1052V116.4H68.9452V119.22L68.6452 118.5C68.9785 117.807 69.4918 117.267 70.1852 116.88C70.8785 116.493 71.6852 116.3 72.6052 116.3C73.6185 116.3 74.4918 116.553 75.2252 117.06C75.9585 117.553 76.4385 118.307 76.6652 119.32L75.8852 119C76.2052 118.187 76.7652 117.533 77.5652 117.04C78.3652 116.547 79.2985 116.3 80.3652 116.3ZM94.818 127V124.76L94.718 124.34V120.52C94.718 119.707 94.478 119.08 93.998 118.64C93.5313 118.187 92.8246 117.96 91.878 117.96C91.2513 117.96 90.638 118.067 90.038 118.28C89.438 118.48 88.9313 118.753 88.518 119.1L87.718 117.66C88.2646 117.22 88.918 116.887 89.678 116.66C90.4513 116.42 91.258 116.3 92.098 116.3C93.5513 116.3 94.6713 116.653 95.458 117.36C96.2446 118.067 96.638 119.147 96.638 120.6V127H94.818ZM91.338 127.12C90.5513 127.12 89.858 126.987 89.258 126.72C88.6713 126.453 88.218 126.087 87.898 125.62C87.578 125.14 87.418 124.6 87.418 124C87.418 123.427 87.5513 122.907 87.818 122.44C88.098 121.973 88.5446 121.6 89.158 121.32C89.7846 121.04 90.6246 120.9 91.678 120.9H95.038V122.28H91.758C90.798 122.28 90.1513 122.44 89.818 122.76C89.4846 123.08 89.318 123.467 89.318 123.92C89.318 124.44 89.5246 124.86 89.938 125.18C90.3513 125.487 90.9246 125.64 91.658 125.64C92.378 125.64 93.0046 125.48 93.538 125.16C94.0846 124.84 94.478 124.373 94.718 123.76L95.098 125.08C94.8446 125.707 94.398 126.207 93.758 126.58C93.118 126.94 92.3113 127.12 91.338 127.12ZM100.651 119.04C100.278 119.04 99.9578 118.913 99.6911 118.66C99.4244 118.393 99.2911 118.06 99.2911 117.66C99.2911 117.26 99.4244 116.933 99.6911 116.68C99.9578 116.427 100.278 116.3 100.651 116.3C101.011 116.3 101.318 116.427 101.571 116.68C101.838 116.933 101.971 117.26 101.971 117.66C101.971 118.06 101.838 118.393 101.571 118.66C101.318 118.913 101.011 119.04 100.651 119.04ZM100.651 127.12C100.278 127.12 99.9578 126.993 99.6911 126.74C99.4244 126.473 99.2911 126.14 99.2911 125.74C99.2911 125.34 99.4244 125.013 99.6911 124.76C99.9578 124.507 100.278 124.38 100.651 124.38C101.011 124.38 101.318 124.507 101.571 124.76C101.838 125.013 101.971 125.34 101.971 125.74C101.971 126.14 101.838 126.473 101.571 126.74C101.318 126.993 101.011 127.12 100.651 127.12ZM109.013 127V125.64L114.713 120.14C115.22 119.66 115.593 119.24 115.833 118.88C116.087 118.507 116.253 118.167 116.333 117.86C116.427 117.54 116.473 117.233 116.473 116.94C116.473 116.22 116.22 115.653 115.713 115.24C115.207 114.827 114.467 114.62 113.493 114.62C112.747 114.62 112.073 114.747 111.473 115C110.873 115.24 110.353 115.62 109.913 116.14L108.553 114.96C109.087 114.28 109.8 113.76 110.693 113.4C111.6 113.027 112.593 112.84 113.673 112.84C114.647 112.84 115.493 113 116.213 113.32C116.933 113.627 117.487 114.073 117.873 114.66C118.273 115.247 118.473 115.94 118.473 116.74C118.473 117.193 118.413 117.64 118.293 118.08C118.173 118.52 117.947 118.987 117.613 119.48C117.28 119.973 116.8 120.527 116.173 121.14L111.093 126.04L110.613 125.26H119.073V127H109.013ZM126.418 127.16C125.325 127.16 124.345 126.88 123.478 126.32C122.625 125.76 121.945 124.947 121.438 123.88C120.945 122.813 120.698 121.52 120.698 120C120.698 118.48 120.945 117.187 121.438 116.12C121.945 115.053 122.625 114.24 123.478 113.68C124.345 113.12 125.325 112.84 126.418 112.84C127.498 112.84 128.472 113.12 129.338 113.68C130.205 114.24 130.885 115.053 131.378 116.12C131.872 117.187 132.118 118.48 132.118 120C132.118 121.52 131.872 122.813 131.378 123.88C130.885 124.947 130.205 125.76 129.338 126.32C128.472 126.88 127.498 127.16 126.418 127.16ZM126.418 125.38C127.152 125.38 127.792 125.18 128.338 124.78C128.898 124.38 129.332 123.78 129.638 122.98C129.958 122.18 130.118 121.187 130.118 120C130.118 118.813 129.958 117.82 129.638 117.02C129.332 116.22 128.898 115.62 128.338 115.22C127.792 114.82 127.152 114.62 126.418 114.62C125.685 114.62 125.038 114.82 124.478 115.22C123.918 115.62 123.478 116.22 123.158 117.02C122.852 117.82 122.698 118.813 122.698 120C122.698 121.187 122.852 122.18 123.158 122.98C123.478 123.78 123.918 124.38 124.478 124.78C125.038 125.18 125.685 125.38 126.418 125.38ZM136.398 127V113.8L137.258 114.74H133.238V113H138.378V127H136.398ZM145.98 112.84C147.247 112.84 148.314 113.113 149.18 113.66C150.06 114.207 150.727 115 151.18 116.04C151.634 117.067 151.86 118.327 151.86 119.82C151.86 121.407 151.58 122.747 151.02 123.84C150.46 124.933 149.687 125.76 148.7 126.32C147.714 126.88 146.56 127.16 145.24 127.16C144.587 127.16 143.954 127.093 143.34 126.96C142.74 126.827 142.214 126.62 141.76 126.34L142.52 124.78C142.894 125.02 143.307 125.193 143.76 125.3C144.227 125.393 144.714 125.44 145.22 125.44C146.634 125.44 147.76 125 148.6 124.12C149.44 123.227 149.86 121.907 149.86 120.16C149.86 119.88 149.847 119.547 149.82 119.16C149.794 118.773 149.734 118.393 149.64 118.02L150.3 118.7C150.114 119.313 149.8 119.833 149.36 120.26C148.934 120.673 148.414 120.987 147.8 121.2C147.2 121.4 146.54 121.5 145.82 121.5C144.9 121.5 144.08 121.327 143.36 120.98C142.64 120.633 142.074 120.147 141.66 119.52C141.247 118.88 141.04 118.127 141.04 117.26C141.04 116.353 141.254 115.573 141.68 114.92C142.12 114.253 142.714 113.74 143.46 113.38C144.22 113.02 145.06 112.84 145.98 112.84ZM146.06 114.46C145.46 114.46 144.927 114.573 144.46 114.8C143.994 115.027 143.627 115.34 143.36 115.74C143.107 116.14 142.98 116.62 142.98 117.18C142.98 118.007 143.267 118.667 143.84 119.16C144.414 119.64 145.187 119.88 146.16 119.88C146.8 119.88 147.36 119.76 147.84 119.52C148.334 119.28 148.714 118.953 148.98 118.54C149.26 118.127 149.4 117.667 149.4 117.16C149.4 116.667 149.274 116.22 149.02 115.82C148.767 115.42 148.394 115.093 147.9 114.84C147.407 114.587 146.794 114.46 146.06 114.46ZM154.87 127.12C154.497 127.12 154.177 126.993 153.91 126.74C153.643 126.473 153.51 126.14 153.51 125.74C153.51 125.34 153.643 125.013 153.91 124.76C154.177 124.507 154.497 124.38 154.87 124.38C155.23 124.38 155.537 124.507 155.79 124.76C156.057 125.013 156.19 125.34 156.19 125.74C156.19 126.14 156.057 126.473 155.79 126.74C155.537 126.993 155.23 127.12 154.87 127.12ZM158.056 127V125.64L163.756 120.14C164.263 119.66 164.636 119.24 164.876 118.88C165.13 118.507 165.296 118.167 165.376 117.86C165.47 117.54 165.516 117.233 165.516 116.94C165.516 116.22 165.263 115.653 164.756 115.24C164.25 114.827 163.51 114.62 162.536 114.62C161.79 114.62 161.116 114.747 160.516 115C159.916 115.24 159.396 115.62 158.956 116.14L157.596 114.96C158.13 114.28 158.843 113.76 159.736 113.4C160.643 113.027 161.636 112.84 162.716 112.84C163.69 112.84 164.536 113 165.256 113.32C165.976 113.627 166.53 114.073 166.916 114.66C167.316 115.247 167.516 115.94 167.516 116.74C167.516 117.193 167.456 117.64 167.336 118.08C167.216 118.52 166.99 118.987 166.656 119.48C166.323 119.973 165.843 120.527 165.216 121.14L160.136 126.04L159.656 125.26H168.116V127H158.056Z" fill="black"/>
<path d="M32.312 167L38.652 153H40.632L46.992 167H44.892L39.232 154.12H40.032L34.372 167H32.312ZM35.012 163.5L35.552 161.9H43.432L44.012 163.5H35.012ZM48.8005 167V152.16H50.7205V167H48.8005ZM58.8464 167.12C57.9397 167.12 57.1397 166.953 56.4464 166.62C55.7664 166.287 55.2331 165.78 54.8464 165.1C54.4731 164.407 54.2864 163.54 54.2864 162.5V156.4H56.2064V162.28C56.2064 163.32 56.4531 164.1 56.9464 164.62C57.4531 165.14 58.1597 165.4 59.0664 165.4C59.7331 165.4 60.3131 165.267 60.8064 165C61.2997 164.72 61.6797 164.32 61.9464 163.8C62.2131 163.267 62.3464 162.627 62.3464 161.88V156.4H64.2664V167H62.4464V164.14L62.7464 164.9C62.3997 165.607 61.8797 166.153 61.1864 166.54C60.4931 166.927 59.7131 167.12 58.8464 167.12ZM73.5816 156.3C74.4482 156.3 75.2082 156.467 75.8616 156.8C76.5282 157.133 77.0482 157.64 77.4216 158.32C77.7949 159 77.9816 159.86 77.9816 160.9V167H76.0616V161.12C76.0616 160.093 75.8082 159.32 75.3016 158.8C74.8082 158.28 74.1082 158.02 73.2016 158.02C72.5216 158.02 71.9282 158.153 71.4216 158.42C70.9149 158.687 70.5216 159.08 70.2416 159.6C69.9749 160.12 69.8416 160.767 69.8416 161.54V167H67.9216V156.4H69.7616V159.26L69.4616 158.5C69.8082 157.807 70.3416 157.267 71.0616 156.88C71.7816 156.493 72.6216 156.3 73.5816 156.3ZM86.0748 167.12C85.0082 167.12 84.0615 166.887 83.2348 166.42C82.4082 165.953 81.7548 165.313 81.2748 164.5C80.7948 163.673 80.5548 162.74 80.5548 161.7C80.5548 160.647 80.7948 159.713 81.2748 158.9C81.7548 158.087 82.4082 157.453 83.2348 157C84.0615 156.533 85.0082 156.3 86.0748 156.3C87.1282 156.3 88.0682 156.533 88.8948 157C89.7348 157.453 90.3882 158.087 90.8548 158.9C91.3348 159.7 91.5748 160.633 91.5748 161.7C91.5748 162.753 91.3348 163.687 90.8548 164.5C90.3882 165.313 89.7348 165.953 88.8948 166.42C88.0682 166.887 87.1282 167.12 86.0748 167.12ZM86.0748 165.44C86.7548 165.44 87.3615 165.287 87.8948 164.98C88.4415 164.673 88.8682 164.24 89.1748 163.68C89.4815 163.107 89.6348 162.447 89.6348 161.7C89.6348 160.94 89.4815 160.287 89.1748 159.74C88.8682 159.18 88.4415 158.747 87.8948 158.44C87.3615 158.133 86.7548 157.98 86.0748 157.98C85.3948 157.98 84.7882 158.133 84.2548 158.44C83.7215 158.747 83.2948 159.18 82.9748 159.74C82.6548 160.287 82.4948 160.94 82.4948 161.7C82.4948 162.447 82.6548 163.107 82.9748 163.68C83.2948 164.24 83.7215 164.673 84.2548 164.98C84.7882 165.287 85.3948 165.44 86.0748 165.44ZM94.6902 159.04C94.3168 159.04 93.9968 158.913 93.7302 158.66C93.4635 158.393 93.3302 158.06 93.3302 157.66C93.3302 157.26 93.4635 156.933 93.7302 156.68C93.9968 156.427 94.3168 156.3 94.6902 156.3C95.0502 156.3 95.3568 156.427 95.6102 156.68C95.8768 156.933 96.0102 157.26 96.0102 157.66C96.0102 158.06 95.8768 158.393 95.6102 158.66C95.3568 158.913 95.0502 159.04 94.6902 159.04ZM94.6902 167.12C94.3168 167.12 93.9968 166.993 93.7302 166.74C93.4635 166.473 93.3302 166.14 93.3302 165.74C93.3302 165.34 93.4635 165.013 93.7302 164.76C93.9968 164.507 94.3168 164.38 94.6902 164.38C95.0502 164.38 95.3568 164.507 95.6102 164.76C95.8768 165.013 96.0102 165.34 96.0102 165.74C96.0102 166.14 95.8768 166.473 95.6102 166.74C95.3568 166.993 95.0502 167.12 94.6902 167.12ZM103.053 167V165.64L108.753 160.14C109.259 159.66 109.633 159.24 109.873 158.88C110.126 158.507 110.293 158.167 110.373 157.86C110.466 157.54 110.513 157.233 110.513 156.94C110.513 156.22 110.259 155.653 109.753 155.24C109.246 154.827 108.506 154.62 107.533 154.62C106.786 154.62 106.113 154.747 105.513 155C104.913 155.24 104.393 155.62 103.953 156.14L102.593 154.96C103.126 154.28 103.839 153.76 104.733 153.4C105.639 153.027 106.633 152.84 107.713 152.84C108.686 152.84 109.533 153 110.253 153.32C110.973 153.627 111.526 154.073 111.913 154.66C112.313 155.247 112.513 155.94 112.513 156.74C112.513 157.193 112.453 157.64 112.333 158.08C112.213 158.52 111.986 158.987 111.653 159.48C111.319 159.973 110.839 160.527 110.213 161.14L105.133 166.04L104.653 165.26H113.113V167H103.053ZM120.217 167.16C119.084 167.16 118.104 166.993 117.277 166.66C116.45 166.327 115.81 165.853 115.357 165.24C114.904 164.613 114.677 163.88 114.677 163.04C114.677 162.213 114.89 161.513 115.317 160.94C115.757 160.353 116.39 159.913 117.217 159.62C118.044 159.313 119.044 159.16 120.217 159.16C121.39 159.16 122.39 159.313 123.217 159.62C124.057 159.913 124.697 160.353 125.137 160.94C125.577 161.527 125.797 162.227 125.797 163.04C125.797 163.88 125.57 164.613 125.117 165.24C124.664 165.853 124.017 166.327 123.177 166.66C122.337 166.993 121.35 167.16 120.217 167.16ZM120.217 165.54C121.337 165.54 122.21 165.313 122.837 164.86C123.477 164.393 123.797 163.767 123.797 162.98C123.797 162.207 123.477 161.6 122.837 161.16C122.21 160.707 121.337 160.48 120.217 160.48C119.11 160.48 118.244 160.707 117.617 161.16C116.99 161.6 116.677 162.207 116.677 162.98C116.677 163.767 116.99 164.393 117.617 164.86C118.244 165.313 119.11 165.54 120.217 165.54ZM120.217 160.24C119.15 160.24 118.244 160.1 117.497 159.82C116.75 159.527 116.177 159.113 115.777 158.58C115.377 158.033 115.177 157.387 115.177 156.64C115.177 155.853 115.384 155.18 115.797 154.62C116.224 154.047 116.817 153.607 117.577 153.3C118.337 152.993 119.217 152.84 120.217 152.84C121.23 152.84 122.117 152.993 122.877 153.3C123.637 153.607 124.23 154.047 124.657 154.62C125.084 155.18 125.297 155.853 125.297 156.64C125.297 157.387 125.097 158.033 124.697 158.58C124.297 159.113 123.717 159.527 122.957 159.82C122.197 160.1 121.284 160.24 120.217 160.24ZM120.217 158.96C121.19 158.96 121.95 158.76 122.497 158.36C123.057 157.96 123.337 157.413 123.337 156.72C123.337 156.013 123.05 155.46 122.477 155.06C121.904 154.66 121.15 154.46 120.217 154.46C119.284 154.46 118.537 154.66 117.977 155.06C117.43 155.46 117.157 156.013 117.157 156.72C117.157 157.413 117.424 157.96 117.957 158.36C118.504 158.76 119.257 158.96 120.217 158.96Z" fill="black"/>
<path d="M40.4498 207.16C39.3832 207.16 38.3965 206.987 37.4898 206.64C36.5965 206.28 35.8165 205.78 35.1498 205.14C34.4965 204.487 33.9832 203.727 33.6098 202.86C33.2365 201.993 33.0498 201.04 33.0498 200C33.0498 198.96 33.2365 198.007 33.6098 197.14C33.9832 196.273 34.5032 195.52 35.1698 194.88C35.8365 194.227 36.6165 193.727 37.5098 193.38C38.4165 193.02 39.4032 192.84 40.4698 192.84C41.5498 192.84 42.5432 193.027 43.4498 193.4C44.3698 193.76 45.1498 194.3 45.7898 195.02L44.4898 196.28C43.9565 195.72 43.3565 195.307 42.6898 195.04C42.0232 194.76 41.3098 194.62 40.5498 194.62C39.7632 194.62 39.0298 194.753 38.3498 195.02C37.6832 195.287 37.1032 195.66 36.6098 196.14C36.1165 196.62 35.7298 197.193 35.4498 197.86C35.1832 198.513 35.0498 199.227 35.0498 200C35.0498 200.773 35.1832 201.493 35.4498 202.16C35.7298 202.813 36.1165 203.38 36.6098 203.86C37.1032 204.34 37.6832 204.713 38.3498 204.98C39.0298 205.247 39.7632 205.38 40.5498 205.38C41.3098 205.38 42.0232 205.247 42.6898 204.98C43.3565 204.7 43.9565 204.273 44.4898 203.7L45.7898 204.96C45.1498 205.68 44.3698 206.227 43.4498 206.6C42.5432 206.973 41.5432 207.16 40.4498 207.16ZM52.4909 207.12C51.5843 207.12 50.7843 206.953 50.0909 206.62C49.4109 206.287 48.8776 205.78 48.4909 205.1C48.1176 204.407 47.9309 203.54 47.9309 202.5V196.4H49.8509V202.28C49.8509 203.32 50.0976 204.1 50.5909 204.62C51.0976 205.14 51.8043 205.4 52.7109 205.4C53.3776 205.4 53.9576 205.267 54.4509 205C54.9443 204.72 55.3243 204.32 55.5909 203.8C55.8576 203.267 55.9909 202.627 55.9909 201.88V196.4H57.9109V207H56.0909V204.14L56.3909 204.9C56.0443 205.607 55.5243 206.153 54.8309 206.54C54.1376 206.927 53.3576 207.12 52.4909 207.12ZM61.5661 207V196.4H63.4061V199.28L63.2261 198.56C63.5194 197.827 64.0128 197.267 64.7061 196.88C65.3994 196.493 66.2528 196.3 67.2661 196.3V198.16C67.1861 198.147 67.1061 198.14 67.0261 198.14C66.9594 198.14 66.8928 198.14 66.8261 198.14C65.7994 198.14 64.9861 198.447 64.3861 199.06C63.7861 199.673 63.4861 200.56 63.4861 201.72V207H61.5661ZM72.7897 207.12C71.9097 207.12 71.0697 207 70.2697 206.76C69.483 206.52 68.863 206.227 68.4097 205.88L69.2097 204.36C69.663 204.667 70.223 204.927 70.8897 205.14C71.5564 205.353 72.2364 205.46 72.9297 205.46C73.823 205.46 74.463 205.333 74.8497 205.08C75.2497 204.827 75.4497 204.473 75.4497 204.02C75.4497 203.687 75.3297 203.427 75.0897 203.24C74.8497 203.053 74.5297 202.913 74.1297 202.82C73.743 202.727 73.3097 202.647 72.8297 202.58C72.3497 202.5 71.8697 202.407 71.3897 202.3C70.9097 202.18 70.4697 202.02 70.0697 201.82C69.6697 201.607 69.3497 201.32 69.1097 200.96C68.8697 200.587 68.7497 200.093 68.7497 199.48C68.7497 198.84 68.9297 198.28 69.2897 197.8C69.6497 197.32 70.1564 196.953 70.8097 196.7C71.4764 196.433 72.263 196.3 73.1697 196.3C73.863 196.3 74.563 196.387 75.2697 196.56C75.9897 196.72 76.5764 196.953 77.0297 197.26L76.2097 198.78C75.7297 198.46 75.2297 198.24 74.7097 198.12C74.1897 198 73.6697 197.94 73.1497 197.94C72.3097 197.94 71.683 198.08 71.2697 198.36C70.8564 198.627 70.6497 198.973 70.6497 199.4C70.6497 199.76 70.7697 200.04 71.0097 200.24C71.263 200.427 71.583 200.573 71.9697 200.68C72.3697 200.787 72.8097 200.88 73.2897 200.96C73.7697 201.027 74.2497 201.12 74.7297 201.24C75.2097 201.347 75.643 201.5 76.0297 201.7C76.4297 201.9 76.7497 202.18 76.9897 202.54C77.243 202.9 77.3697 203.38 77.3697 203.98C77.3697 204.62 77.183 205.173 76.8097 205.64C76.4364 206.107 75.9097 206.473 75.2297 206.74C74.5497 206.993 73.7364 207.12 72.7897 207.12ZM84.3092 207.12C83.2426 207.12 82.2959 206.887 81.4692 206.42C80.6426 205.953 79.9892 205.313 79.5092 204.5C79.0292 203.673 78.7892 202.74 78.7892 201.7C78.7892 200.647 79.0292 199.713 79.5092 198.9C79.9892 198.087 80.6426 197.453 81.4692 197C82.2959 196.533 83.2426 196.3 84.3092 196.3C85.3626 196.3 86.3026 196.533 87.1292 197C87.9692 197.453 88.6226 198.087 89.0892 198.9C89.5692 199.7 89.8092 200.633 89.8092 201.7C89.8092 202.753 89.5692 203.687 89.0892 204.5C88.6226 205.313 87.9692 205.953 87.1292 206.42C86.3026 206.887 85.3626 207.12 84.3092 207.12ZM84.3092 205.44C84.9892 205.44 85.5959 205.287 86.1292 204.98C86.6759 204.673 87.1026 204.24 87.4092 203.68C87.7159 203.107 87.8692 202.447 87.8692 201.7C87.8692 200.94 87.7159 200.287 87.4092 199.74C87.1026 199.18 86.6759 198.747 86.1292 198.44C85.5959 198.133 84.9892 197.98 84.3092 197.98C83.6292 197.98 83.0226 198.133 82.4892 198.44C81.9559 198.747 81.5292 199.18 81.2092 199.74C80.8892 200.287 80.7292 200.94 80.7292 201.7C80.7292 202.447 80.8892 203.107 81.2092 203.68C81.5292 204.24 81.9559 204.673 82.4892 204.98C83.0226 205.287 83.6292 205.44 84.3092 205.44ZM92.9245 199.04C92.5512 199.04 92.2312 198.913 91.9645 198.66C91.6979 198.393 91.5645 198.06 91.5645 197.66C91.5645 197.26 91.6979 196.933 91.9645 196.68C92.2312 196.427 92.5512 196.3 92.9245 196.3C93.2845 196.3 93.5912 196.427 93.8445 196.68C94.1112 196.933 94.2445 197.26 94.2445 197.66C94.2445 198.06 94.1112 198.393 93.8445 198.66C93.5912 198.913 93.2845 199.04 92.9245 199.04ZM92.9245 207.12C92.5512 207.12 92.2312 206.993 91.9645 206.74C91.6979 206.473 91.5645 206.14 91.5645 205.74C91.5645 205.34 91.6979 205.013 91.9645 204.76C92.2312 204.507 92.5512 204.38 92.9245 204.38C93.2845 204.38 93.5912 204.507 93.8445 204.76C94.1112 205.013 94.2445 205.34 94.2445 205.74C94.2445 206.14 94.1112 206.473 93.8445 206.74C93.5912 206.993 93.2845 207.12 92.9245 207.12ZM108.907 207.16C107.84 207.16 106.854 206.987 105.947 206.64C105.054 206.28 104.274 205.78 103.607 205.14C102.954 204.487 102.44 203.727 102.067 202.86C101.694 201.993 101.507 201.04 101.507 200C101.507 198.96 101.694 198.007 102.067 197.14C102.44 196.273 102.96 195.52 103.627 194.88C104.294 194.227 105.074 193.727 105.967 193.38C106.874 193.02 107.86 192.84 108.927 192.84C110.007 192.84 111 193.027 111.907 193.4C112.827 193.76 113.607 194.3 114.247 195.02L112.947 196.28C112.414 195.72 111.814 195.307 111.147 195.04C110.48 194.76 109.767 194.62 109.007 194.62C108.22 194.62 107.487 194.753 106.807 195.02C106.14 195.287 105.56 195.66 105.067 196.14C104.574 196.62 104.187 197.193 103.907 197.86C103.64 198.513 103.507 199.227 103.507 200C103.507 200.773 103.64 201.493 103.907 202.16C104.187 202.813 104.574 203.38 105.067 203.86C105.56 204.34 106.14 204.713 106.807 204.98C107.487 205.247 108.22 205.38 109.007 205.38C109.767 205.38 110.48 205.247 111.147 204.98C111.814 204.7 112.414 204.273 112.947 203.7L114.247 204.96C113.607 205.68 112.827 206.227 111.907 206.6C111 206.973 110 207.16 108.907 207.16ZM116.82 207V196.4H118.74V207H116.82ZM117.78 194.36C117.407 194.36 117.093 194.24 116.84 194C116.6 193.76 116.48 193.467 116.48 193.12C116.48 192.76 116.6 192.46 116.84 192.22C117.093 191.98 117.407 191.86 117.78 191.86C118.153 191.86 118.46 191.98 118.7 192.22C118.953 192.447 119.08 192.733 119.08 193.08C119.08 193.44 118.96 193.747 118.72 194C118.48 194.24 118.167 194.36 117.78 194.36ZM127.126 207.12C125.993 207.12 124.993 206.887 124.126 206.42C123.273 205.953 122.606 205.313 122.126 204.5C121.659 203.687 121.426 202.753 121.426 201.7C121.426 200.647 121.653 199.713 122.106 198.9C122.573 198.087 123.206 197.453 124.006 197C124.819 196.533 125.733 196.3 126.746 196.3C127.773 196.3 128.679 196.527 129.466 196.98C130.253 197.433 130.866 198.073 131.306 198.9C131.759 199.713 131.986 200.667 131.986 201.76C131.986 201.84 131.979 201.933 131.966 202.04C131.966 202.147 131.959 202.247 131.946 202.34H122.926V200.96H130.946L130.166 201.44C130.179 200.76 130.039 200.153 129.746 199.62C129.453 199.087 129.046 198.673 128.526 198.38C128.019 198.073 127.426 197.92 126.746 197.92C126.079 197.92 125.486 198.073 124.966 198.38C124.446 198.673 124.039 199.093 123.746 199.64C123.453 200.173 123.306 200.787 123.306 201.48V201.8C123.306 202.507 123.466 203.14 123.786 203.7C124.119 204.247 124.579 204.673 125.166 204.98C125.753 205.287 126.426 205.44 127.186 205.44C127.813 205.44 128.379 205.333 128.886 205.12C129.406 204.907 129.859 204.587 130.246 204.16L131.306 205.4C130.826 205.96 130.226 206.387 129.506 206.68C128.799 206.973 128.006 207.12 127.126 207.12ZM123.146 194.86L125.806 192.26H127.646L130.306 194.86H128.566L125.926 192.66H127.526L124.886 194.86H123.146ZM140.312 196.3C141.179 196.3 141.939 196.467 142.592 196.8C143.259 197.133 143.779 197.64 144.152 198.32C144.525 199 144.712 199.86 144.712 200.9V207H142.792V201.12C142.792 200.093 142.539 199.32 142.032 198.8C141.539 198.28 140.839 198.02 139.932 198.02C139.252 198.02 138.659 198.153 138.152 198.42C137.645 198.687 137.252 199.08 136.972 199.6C136.705 200.12 136.572 200.767 136.572 201.54V207H134.652V196.4H136.492V199.26L136.192 198.5C136.539 197.807 137.072 197.267 137.792 196.88C138.512 196.493 139.352 196.3 140.312 196.3ZM152.885 207.12C151.805 207.12 150.839 206.887 149.985 206.42C149.145 205.953 148.485 205.313 148.005 204.5C147.525 203.687 147.285 202.753 147.285 201.7C147.285 200.647 147.525 199.713 148.005 198.9C148.485 198.087 149.145 197.453 149.985 197C150.839 196.533 151.805 196.3 152.885 196.3C153.845 196.3 154.699 196.493 155.445 196.88C156.205 197.253 156.792 197.813 157.205 198.56L155.745 199.5C155.399 198.98 154.972 198.6 154.465 198.36C153.972 198.107 153.439 197.98 152.865 197.98C152.172 197.98 151.552 198.133 151.005 198.44C150.459 198.747 150.025 199.18 149.705 199.74C149.385 200.287 149.225 200.94 149.225 201.7C149.225 202.46 149.385 203.12 149.705 203.68C150.025 204.24 150.459 204.673 151.005 204.98C151.552 205.287 152.172 205.44 152.865 205.44C153.439 205.44 153.972 205.32 154.465 205.08C154.972 204.827 155.399 204.44 155.745 203.92L157.205 204.84C156.792 205.573 156.205 206.14 155.445 206.54C154.699 206.927 153.845 207.12 152.885 207.12ZM159.554 207V196.4H161.474V207H159.554ZM160.514 194.36C160.141 194.36 159.828 194.24 159.574 194C159.334 193.76 159.214 193.467 159.214 193.12C159.214 192.76 159.334 192.46 159.574 192.22C159.828 191.98 160.141 191.86 160.514 191.86C160.888 191.86 161.194 191.98 161.434 192.22C161.688 192.447 161.814 192.733 161.814 193.08C161.814 193.44 161.694 193.747 161.454 194C161.214 194.24 160.901 194.36 160.514 194.36ZM171.72 207V204.76L171.62 204.34V200.52C171.62 199.707 171.38 199.08 170.9 198.64C170.434 198.187 169.727 197.96 168.78 197.96C168.154 197.96 167.54 198.067 166.94 198.28C166.34 198.48 165.834 198.753 165.42 199.1L164.62 197.66C165.167 197.22 165.82 196.887 166.58 196.66C167.354 196.42 168.16 196.3 169 196.3C170.454 196.3 171.574 196.653 172.36 197.36C173.147 198.067 173.54 199.147 173.54 200.6V207H171.72ZM168.24 207.12C167.454 207.12 166.76 206.987 166.16 206.72C165.574 206.453 165.12 206.087 164.8 205.62C164.48 205.14 164.32 204.6 164.32 204C164.32 203.427 164.454 202.907 164.72 202.44C165 201.973 165.447 201.6 166.06 201.32C166.687 201.04 167.527 200.9 168.58 200.9H171.94V202.28H168.66C167.7 202.28 167.054 202.44 166.72 202.76C166.387 203.08 166.22 203.467 166.22 203.92C166.22 204.44 166.427 204.86 166.84 205.18C167.254 205.487 167.827 205.64 168.56 205.64C169.28 205.64 169.907 205.48 170.44 205.16C170.987 204.84 171.38 204.373 171.62 203.76L172 205.08C171.747 205.707 171.3 206.207 170.66 206.58C170.02 206.94 169.214 207.12 168.24 207.12ZM186.845 207.12C185.818 207.12 184.898 206.893 184.085 206.44C183.285 205.987 182.651 205.353 182.185 204.54C181.718 203.727 181.485 202.78 181.485 201.7C181.485 200.62 181.718 199.68 182.185 198.88C182.651 198.067 183.285 197.433 184.085 196.98C184.898 196.527 185.818 196.3 186.845 196.3C187.738 196.3 188.545 196.5 189.265 196.9C189.985 197.3 190.558 197.9 190.985 198.7C191.425 199.5 191.645 200.5 191.645 201.7C191.645 202.9 191.431 203.9 191.005 204.7C190.591 205.5 190.025 206.107 189.305 206.52C188.585 206.92 187.765 207.12 186.845 207.12ZM187.005 205.44C187.671 205.44 188.271 205.287 188.805 204.98C189.351 204.673 189.778 204.24 190.085 203.68C190.405 203.107 190.565 202.447 190.565 201.7C190.565 200.94 190.405 200.287 190.085 199.74C189.778 199.18 189.351 198.747 188.805 198.44C188.271 198.133 187.671 197.98 187.005 197.98C186.325 197.98 185.718 198.133 185.185 198.44C184.651 198.747 184.225 199.18 183.905 199.74C183.585 200.287 183.425 200.94 183.425 201.7C183.425 202.447 183.585 203.107 183.905 203.68C184.225 204.24 184.651 204.673 185.185 204.98C185.718 205.287 186.325 205.44 187.005 205.44ZM190.625 207V204.14L190.745 201.68L190.545 199.22V192.16H192.465V207H190.625ZM202.677 207V204.76L202.577 204.34V200.52C202.577 199.707 202.337 199.08 201.857 198.64C201.391 198.187 200.684 197.96 199.737 197.96C199.111 197.96 198.497 198.067 197.897 198.28C197.297 198.48 196.791 198.753 196.377 199.1L195.577 197.66C196.124 197.22 196.777 196.887 197.537 196.66C198.311 196.42 199.117 196.3 199.957 196.3C201.411 196.3 202.531 196.653 203.317 197.36C204.104 198.067 204.497 199.147 204.497 200.6V207H202.677ZM199.197 207.12C198.411 207.12 197.717 206.987 197.117 206.72C196.531 206.453 196.077 206.087 195.757 205.62C195.437 205.14 195.277 204.6 195.277 204C195.277 203.427 195.411 202.907 195.677 202.44C195.957 201.973 196.404 201.6 197.017 201.32C197.644 201.04 198.484 200.9 199.537 200.9H202.897V202.28H199.617C198.657 202.28 198.011 202.44 197.677 202.76C197.344 203.08 197.177 203.467 197.177 203.92C197.177 204.44 197.384 204.86 197.797 205.18C198.211 205.487 198.784 205.64 199.517 205.64C200.237 205.64 200.864 205.48 201.397 205.16C201.944 204.84 202.337 204.373 202.577 203.76L202.957 205.08C202.704 205.707 202.257 206.207 201.617 206.58C200.977 206.94 200.171 207.12 199.197 207.12ZM219.962 207.16C218.895 207.16 217.908 206.987 217.002 206.64C216.108 206.28 215.328 205.78 214.662 205.14C214.008 204.487 213.495 203.727 213.122 202.86C212.748 201.993 212.562 201.04 212.562 200C212.562 198.96 212.748 198.007 213.122 197.14C213.495 196.273 214.015 195.52 214.682 194.88C215.348 194.227 216.128 193.727 217.022 193.38C217.928 193.02 218.915 192.84 219.982 192.84C221.062 192.84 222.055 193.027 222.962 193.4C223.882 193.76 224.662 194.3 225.302 195.02L224.002 196.28C223.468 195.72 222.868 195.307 222.202 195.04C221.535 194.76 220.822 194.62 220.062 194.62C219.275 194.62 218.542 194.753 217.862 195.02C217.195 195.287 216.615 195.66 216.122 196.14C215.628 196.62 215.242 197.193 214.962 197.86C214.695 198.513 214.562 199.227 214.562 200C214.562 200.773 214.695 201.493 214.962 202.16C215.242 202.813 215.628 203.38 216.122 203.86C216.615 204.34 217.195 204.713 217.862 204.98C218.542 205.247 219.275 205.38 220.062 205.38C220.822 205.38 221.535 205.247 222.202 204.98C222.868 204.7 223.468 204.273 224.002 203.7L225.302 204.96C224.662 205.68 223.882 206.227 222.962 206.6C222.055 206.973 221.055 207.16 219.962 207.16ZM231.965 207.12C230.899 207.12 229.952 206.887 229.125 206.42C228.299 205.953 227.645 205.313 227.165 204.5C226.685 203.673 226.445 202.74 226.445 201.7C226.445 200.647 226.685 199.713 227.165 198.9C227.645 198.087 228.299 197.453 229.125 197C229.952 196.533 230.899 196.3 231.965 196.3C233.019 196.3 233.959 196.533 234.785 197C235.625 197.453 236.279 198.087 236.745 198.9C237.225 199.7 237.465 200.633 237.465 201.7C237.465 202.753 237.225 203.687 236.745 204.5C236.279 205.313 235.625 205.953 234.785 206.42C233.959 206.887 233.019 207.12 231.965 207.12ZM231.965 205.44C232.645 205.44 233.252 205.287 233.785 204.98C234.332 204.673 234.759 204.24 235.065 203.68C235.372 203.107 235.525 202.447 235.525 201.7C235.525 200.94 235.372 200.287 235.065 199.74C234.759 199.18 234.332 198.747 233.785 198.44C233.252 198.133 232.645 197.98 231.965 197.98C231.285 197.98 230.679 198.133 230.145 198.44C229.612 198.747 229.185 199.18 228.865 199.74C228.545 200.287 228.385 200.94 228.385 201.7C228.385 202.447 228.545 203.107 228.865 203.68C229.185 204.24 229.612 204.673 230.145 204.98C230.679 205.287 231.285 205.44 231.965 205.44ZM253.381 196.3C254.234 196.3 254.987 196.467 255.641 196.8C256.294 197.133 256.801 197.64 257.161 198.32C257.534 199 257.721 199.86 257.721 200.9V207H255.801V201.12C255.801 200.093 255.561 199.32 255.081 198.8C254.601 198.28 253.927 198.02 253.061 198.02C252.421 198.02 251.861 198.153 251.381 198.42C250.901 198.687 250.527 199.08 250.261 199.6C250.007 200.12 249.881 200.767 249.881 201.54V207H247.961V201.12C247.961 200.093 247.721 199.32 247.241 198.8C246.774 198.28 246.101 198.02 245.221 198.02C244.594 198.02 244.041 198.153 243.561 198.42C243.081 198.687 242.707 199.08 242.441 199.6C242.174 200.12 242.041 200.767 242.041 201.54V207H240.121V196.4H241.961V199.22L241.661 198.5C241.994 197.807 242.507 197.267 243.201 196.88C243.894 196.493 244.701 196.3 245.621 196.3C246.634 196.3 247.507 196.553 248.241 197.06C248.974 197.553 249.454 198.307 249.681 199.32L248.901 199C249.221 198.187 249.781 197.533 250.581 197.04C251.381 196.547 252.314 196.3 253.381 196.3ZM266.874 207.12C265.994 207.12 265.187 206.92 264.454 206.52C263.734 206.107 263.154 205.5 262.714 204.7C262.287 203.9 262.074 202.9 262.074 201.7C262.074 200.5 262.28 199.5 262.694 198.7C263.12 197.9 263.694 197.3 264.414 196.9C265.147 196.5 265.967 196.3 266.874 196.3C267.914 196.3 268.834 196.527 269.634 196.98C270.434 197.433 271.067 198.067 271.534 198.88C272 199.68 272.234 200.62 272.234 201.7C272.234 202.78 272 203.727 271.534 204.54C271.067 205.353 270.434 205.987 269.634 206.44C268.834 206.893 267.914 207.12 266.874 207.12ZM261.254 210.88V196.4H263.094V199.26L262.974 201.72L263.174 204.18V210.88H261.254ZM266.714 205.44C267.394 205.44 268 205.287 268.534 204.98C269.08 204.673 269.507 204.24 269.814 203.68C270.134 203.107 270.294 202.447 270.294 201.7C270.294 200.94 270.134 200.287 269.814 199.74C269.507 199.18 269.08 198.747 268.534 198.44C268 198.133 267.394 197.98 266.714 197.98C266.047 197.98 265.44 198.133 264.894 198.44C264.36 198.747 263.934 199.18 263.614 199.74C263.307 200.287 263.154 200.94 263.154 201.7C263.154 202.447 263.307 203.107 263.614 203.68C263.934 204.24 264.36 204.673 264.894 204.98C265.44 205.287 266.047 205.44 266.714 205.44ZM279.346 207.12C278.44 207.12 277.64 206.953 276.946 206.62C276.266 206.287 275.733 205.78 275.346 205.1C274.973 204.407 274.786 203.54 274.786 202.5V196.4H276.706V202.28C276.706 203.32 276.953 204.1 277.446 204.62C277.953 205.14 278.66 205.4 279.566 205.4C280.233 205.4 280.813 205.267 281.306 205C281.8 204.72 282.18 204.32 282.446 203.8C282.713 203.267 282.846 202.627 282.846 201.88V196.4H284.766V207H282.946V204.14L283.246 204.9C282.9 205.607 282.38 206.153 281.686 206.54C280.993 206.927 280.213 207.12 279.346 207.12ZM292.062 207.12C290.995 207.12 290.168 206.833 289.582 206.26C288.995 205.687 288.702 204.867 288.702 203.8V194.08H290.622V203.72C290.622 204.293 290.762 204.733 291.042 205.04C291.335 205.347 291.748 205.5 292.282 205.5C292.882 205.5 293.382 205.333 293.782 205L294.382 206.38C294.088 206.633 293.735 206.82 293.322 206.94C292.922 207.06 292.502 207.12 292.062 207.12ZM286.902 197.98V196.4H293.662V197.98H286.902ZM303.283 207V204.76L303.183 204.34V200.52C303.183 199.707 302.943 199.08 302.463 198.64C301.996 198.187 301.289 197.96 300.343 197.96C299.716 197.96 299.103 198.067 298.503 198.28C297.903 198.48 297.396 198.753 296.983 199.1L296.183 197.66C296.729 197.22 297.383 196.887 298.143 196.66C298.916 196.42 299.723 196.3 300.563 196.3C302.016 196.3 303.136 196.653 303.923 197.36C304.709 198.067 305.103 199.147 305.103 200.6V207H303.283ZM299.803 207.12C299.016 207.12 298.323 206.987 297.723 206.72C297.136 206.453 296.683 206.087 296.363 205.62C296.043 205.14 295.883 204.6 295.883 204C295.883 203.427 296.016 202.907 296.283 202.44C296.563 201.973 297.009 201.6 297.623 201.32C298.249 201.04 299.089 200.9 300.143 200.9H303.503V202.28H300.223C299.263 202.28 298.616 202.44 298.283 202.76C297.949 203.08 297.783 203.467 297.783 203.92C297.783 204.44 297.989 204.86 298.403 205.18C298.816 205.487 299.389 205.64 300.123 205.64C300.843 205.64 301.469 205.48 302.003 205.16C302.549 204.84 302.943 204.373 303.183 203.76L303.563 205.08C303.309 205.707 302.863 206.207 302.223 206.58C301.583 206.94 300.776 207.12 299.803 207.12ZM313.276 207.12C312.196 207.12 311.229 206.887 310.376 206.42C309.536 205.953 308.876 205.313 308.396 204.5C307.916 203.687 307.676 202.753 307.676 201.7C307.676 200.647 307.916 199.713 308.396 198.9C308.876 198.087 309.536 197.453 310.376 197C311.229 196.533 312.196 196.3 313.276 196.3C314.236 196.3 315.089 196.493 315.836 196.88C316.596 197.253 317.183 197.813 317.596 198.56L316.136 199.5C315.789 198.98 315.363 198.6 314.856 198.36C314.363 198.107 313.829 197.98 313.256 197.98C312.563 197.98 311.943 198.133 311.396 198.44C310.849 198.747 310.416 199.18 310.096 199.74C309.776 200.287 309.616 200.94 309.616 201.7C309.616 202.46 309.776 203.12 310.096 203.68C310.416 204.24 310.849 204.673 311.396 204.98C311.943 205.287 312.563 205.44 313.256 205.44C313.829 205.44 314.363 205.32 314.856 205.08C315.363 204.827 315.789 204.44 316.136 203.92L317.596 204.84C317.183 205.573 316.596 206.14 315.836 206.54C315.089 206.927 314.236 207.12 313.276 207.12ZM312.336 211.48C311.989 211.48 311.669 211.44 311.376 211.36C311.083 211.293 310.809 211.187 310.556 211.04L310.976 210.06C311.189 210.18 311.403 210.267 311.616 210.32C311.843 210.373 312.083 210.4 312.336 210.4C312.723 210.4 313.003 210.327 313.176 210.18C313.363 210.047 313.456 209.853 313.456 209.6C313.456 209.36 313.363 209.167 313.176 209.02C313.003 208.887 312.716 208.82 312.316 208.82H311.776L312.276 206.86H313.376L313.076 208C313.649 208.053 314.083 208.233 314.376 208.54C314.669 208.847 314.816 209.22 314.816 209.66C314.816 210.22 314.589 210.66 314.136 210.98C313.683 211.313 313.083 211.48 312.336 211.48ZM326.662 207V204.76L326.562 204.34V200.52C326.562 199.707 326.322 199.08 325.842 198.64C325.375 198.187 324.668 197.96 323.722 197.96C323.095 197.96 322.482 198.067 321.882 198.28C321.282 198.48 320.775 198.753 320.362 199.1L319.562 197.66C320.108 197.22 320.762 196.887 321.522 196.66C322.295 196.42 323.102 196.3 323.942 196.3C325.395 196.3 326.515 196.653 327.302 197.36C328.088 198.067 328.482 199.147 328.482 200.6V207H326.662ZM323.182 207.12C322.395 207.12 321.702 206.987 321.102 206.72C320.515 206.453 320.062 206.087 319.742 205.62C319.422 205.14 319.262 204.6 319.262 204C319.262 203.427 319.395 202.907 319.662 202.44C319.942 201.973 320.388 201.6 321.002 201.32C321.628 201.04 322.468 200.9 323.522 200.9H326.882V202.28H323.602C322.642 202.28 321.995 202.44 321.662 202.76C321.328 203.08 321.162 203.467 321.162 203.92C321.162 204.44 321.368 204.86 321.782 205.18C322.195 205.487 322.768 205.64 323.502 205.64C324.222 205.64 324.848 205.48 325.382 205.16C325.928 204.84 326.322 204.373 326.562 203.76L326.942 205.08C326.688 205.707 326.242 206.207 325.602 206.58C324.962 206.94 324.155 207.12 323.182 207.12ZM325.482 194.8C325.162 194.8 324.875 194.733 324.622 194.6C324.382 194.467 324.162 194.313 323.962 194.14C323.762 193.953 323.568 193.793 323.382 193.66C323.195 193.527 323.008 193.46 322.822 193.46C322.528 193.46 322.288 193.573 322.102 193.8C321.928 194.013 321.828 194.313 321.802 194.7H320.722C320.748 193.953 320.935 193.36 321.282 192.92C321.628 192.48 322.095 192.26 322.682 192.26C323.002 192.26 323.288 192.333 323.542 192.48C323.795 192.613 324.022 192.773 324.222 192.96C324.422 193.133 324.608 193.287 324.782 193.42C324.968 193.553 325.155 193.62 325.342 193.62C325.635 193.62 325.875 193.513 326.062 193.3C326.248 193.087 326.348 192.793 326.362 192.42H327.442C327.428 193.127 327.242 193.7 326.882 194.14C326.535 194.58 326.068 194.8 325.482 194.8ZM336.575 207.12C335.508 207.12 334.562 206.887 333.735 206.42C332.908 205.953 332.255 205.313 331.775 204.5C331.295 203.673 331.055 202.74 331.055 201.7C331.055 200.647 331.295 199.713 331.775 198.9C332.255 198.087 332.908 197.453 333.735 197C334.562 196.533 335.508 196.3 336.575 196.3C337.628 196.3 338.568 196.533 339.395 197C340.235 197.453 340.888 198.087 341.355 198.9C341.835 199.7 342.075 200.633 342.075 201.7C342.075 202.753 341.835 203.687 341.355 204.5C340.888 205.313 340.235 205.953 339.395 206.42C338.568 206.887 337.628 207.12 336.575 207.12ZM336.575 205.44C337.255 205.44 337.862 205.287 338.395 204.98C338.942 204.673 339.368 204.24 339.675 203.68C339.982 203.107 340.135 202.447 340.135 201.7C340.135 200.94 339.982 200.287 339.675 199.74C339.368 199.18 338.942 198.747 338.395 198.44C337.862 198.133 337.255 197.98 336.575 197.98C335.895 197.98 335.288 198.133 334.755 198.44C334.222 198.747 333.795 199.18 333.475 199.74C333.155 200.287 332.995 200.94 332.995 201.7C332.995 202.447 333.155 203.107 333.475 203.68C333.795 204.24 334.222 204.673 334.755 204.98C335.288 205.287 335.895 205.44 336.575 205.44Z" fill="black"/>
<rect x="380" y="261" width="136" height="57" rx="4" fill="#0D4C2D"/>
<path d="M437.668 296.5V282.5H440.348L448.608 292.58H447.308V282.5H450.508V296.5H447.848L439.568 286.42H440.868V296.5H437.668ZM455.1 296.5V283.7L456.5 285.1H452.3V282.5H458.34V296.5H455.1Z" fill="#DDEFE6"/>
<rect x="532" y="261" width="136" height="57" rx="4" fill="#0D4C2D"/>
<path d="M587.685 296.5V282.5H590.365L598.625 292.58H597.325V282.5H600.525V296.5H597.865L589.585 286.42H590.885V296.5H587.685ZM602.838 296.5V294.4L608.238 289.3C608.664 288.913 608.978 288.567 609.178 288.26C609.378 287.953 609.511 287.673 609.578 287.42C609.658 287.167 609.698 286.933 609.698 286.72C609.698 286.16 609.504 285.733 609.118 285.44C608.744 285.133 608.191 284.98 607.458 284.98C606.871 284.98 606.324 285.093 605.818 285.32C605.324 285.547 604.904 285.9 604.558 286.38L602.198 284.86C602.731 284.06 603.478 283.427 604.438 282.96C605.398 282.493 606.504 282.26 607.758 282.26C608.798 282.26 609.704 282.433 610.478 282.78C611.264 283.113 611.871 283.587 612.298 284.2C612.738 284.813 612.958 285.547 612.958 286.4C612.958 286.853 612.898 287.307 612.778 287.76C612.671 288.2 612.444 288.667 612.098 289.16C611.764 289.653 611.271 290.207 610.618 290.82L606.138 295.04L605.518 293.86H613.418V296.5H602.838Z" fill="#DDEFE6"/>
</svg>
