<svg width="700" height="350" viewBox="0 0 700 350" fill="none" xmlns="http://www.w3.org/2000/svg">
<rect width="700" height="350" rx="8" fill="#DDEFE6"/>
<rect x="465" y="248" width="203" height="70" rx="4" fill="#0D4C2D"/>
<path d="M521.286 290L515.246 276H518.746L524.026 288.4H521.966L527.326 276H530.546L524.486 290H521.286ZM534.695 281.64H541.435V284.16H534.695V281.64ZM534.935 287.4H542.555V290H531.715V276H542.295V278.6H534.935V287.4ZM545.133 290V276H551.193C552.446 276 553.526 276.207 554.433 276.62C555.339 277.02 556.039 277.6 556.533 278.36C557.026 279.12 557.273 280.027 557.273 281.08C557.273 282.12 557.026 283.02 556.533 283.78C556.039 284.527 555.339 285.1 554.433 285.5C553.526 285.9 552.446 286.1 551.193 286.1H546.933L548.373 284.68V290H545.133ZM554.033 290L550.533 284.92H553.993L557.533 290H554.033ZM548.373 285.04L546.933 283.52H551.013C552.013 283.52 552.759 283.307 553.253 282.88C553.746 282.44 553.993 281.84 553.993 281.08C553.993 280.307 553.746 279.707 553.253 279.28C552.759 278.853 552.013 278.64 551.013 278.64H546.933L548.373 277.1V285.04ZM565.504 290V276H568.184L574.144 285.88H572.724L578.584 276H581.244L581.284 290H578.244L578.224 280.66H578.784L574.104 288.52H572.644L567.864 280.66H568.544V290H565.504ZM582.765 290L589.005 276H592.205L598.465 290H595.065L589.945 277.64H591.225L586.085 290H582.765ZM585.885 287L586.745 284.54H593.945L594.825 287H585.885ZM599.918 290V276H603.158V290H599.918ZM611.08 290.24C609.96 290.24 608.887 290.093 607.86 289.8C606.834 289.493 606.007 289.1 605.38 288.62L606.48 286.18C607.08 286.607 607.787 286.96 608.6 287.24C609.427 287.507 610.26 287.64 611.1 287.64C611.74 287.64 612.254 287.58 612.64 287.46C613.04 287.327 613.334 287.147 613.52 286.92C613.707 286.693 613.8 286.433 613.8 286.14C613.8 285.767 613.654 285.473 613.36 285.26C613.067 285.033 612.68 284.853 612.2 284.72C611.72 284.573 611.187 284.44 610.6 284.32C610.027 284.187 609.447 284.027 608.86 283.84C608.287 283.653 607.76 283.413 607.28 283.12C606.8 282.827 606.407 282.44 606.1 281.96C605.807 281.48 605.66 280.867 605.66 280.12C605.66 279.32 605.874 278.593 606.3 277.94C606.74 277.273 607.394 276.747 608.26 276.36C609.14 275.96 610.24 275.76 611.56 275.76C612.44 275.76 613.307 275.867 614.16 276.08C615.014 276.28 615.767 276.587 616.42 277L615.42 279.46C614.767 279.087 614.114 278.813 613.46 278.64C612.807 278.453 612.167 278.36 611.54 278.36C610.914 278.36 610.4 278.433 610 278.58C609.6 278.727 609.314 278.92 609.14 279.16C608.967 279.387 608.88 279.653 608.88 279.96C608.88 280.32 609.027 280.613 609.32 280.84C609.614 281.053 610 281.227 610.48 281.36C610.96 281.493 611.487 281.627 612.06 281.76C612.647 281.893 613.227 282.047 613.8 282.22C614.387 282.393 614.92 282.627 615.4 282.92C615.88 283.213 616.267 283.6 616.56 284.08C616.867 284.56 617.02 285.167 617.02 285.9C617.02 286.687 616.8 287.407 616.36 288.06C615.92 288.713 615.26 289.24 614.38 289.64C613.514 290.04 612.414 290.24 611.08 290.24Z" fill="#DDEFE6"/>
<path d="M40.7773 67V45.76H32.4253V41.8H53.8093V45.76H45.4573V67H40.7773ZM56.4325 67V47.776H60.9325V67H56.4325ZM55.6765 45.148L60.5365 40.216H65.8285L59.5645 45.148H55.6765ZM74.0747 67.252C71.9627 67.252 70.3307 66.712 69.1787 65.632C68.0267 64.528 67.4507 62.908 67.4507 60.772V43.528H71.9507V60.664C71.9507 61.576 72.1787 62.284 72.6347 62.788C73.1147 63.292 73.7747 63.544 74.6147 63.544C75.6227 63.544 76.4627 63.28 77.1347 62.752L78.3947 65.956C77.8667 66.388 77.2187 66.712 76.4507 66.928C75.6827 67.144 74.8907 67.252 74.0747 67.252ZM64.2827 51.52V47.92H77.0987V51.52H64.2827ZM90.2325 67.252C88.6005 67.252 87.1605 66.952 85.9125 66.352C84.6645 65.728 83.6925 64.792 82.9965 63.544C82.3005 62.272 81.9525 60.676 81.9525 58.756V47.776H86.4525V58.144C86.4525 59.872 86.8365 61.168 87.6045 62.032C88.3965 62.872 89.5125 63.292 90.9525 63.292C92.0085 63.292 92.9205 63.076 93.6885 62.644C94.4805 62.212 95.0925 61.564 95.5245 60.7C95.9805 59.836 96.2085 58.768 96.2085 57.496V47.776H100.709V67H96.4245V61.816L97.1805 63.4C96.5325 64.648 95.5845 65.608 94.3365 66.28C93.0885 66.928 91.7205 67.252 90.2325 67.252ZM106.6 67V40.288H111.1V67H106.6ZM125.647 67.252C123.679 67.252 121.927 66.832 120.391 65.992C118.855 65.128 117.643 63.952 116.755 62.464C115.867 60.976 115.423 59.284 115.423 57.388C115.423 55.468 115.867 53.776 116.755 52.312C117.643 50.824 118.855 49.66 120.391 48.82C121.927 47.98 123.679 47.56 125.647 47.56C127.639 47.56 129.403 47.98 130.939 48.82C132.499 49.66 133.711 50.812 134.575 52.276C135.463 53.74 135.907 55.444 135.907 57.388C135.907 59.284 135.463 60.976 134.575 62.464C133.711 63.952 132.499 65.128 130.939 65.992C129.403 66.832 127.639 67.252 125.647 67.252ZM125.647 63.4C126.751 63.4 127.735 63.16 128.599 62.68C129.463 62.2 130.135 61.504 130.615 60.592C131.119 59.68 131.371 58.612 131.371 57.388C131.371 56.14 131.119 55.072 130.615 54.184C130.135 53.272 129.463 52.576 128.599 52.096C127.735 51.616 126.763 51.376 125.683 51.376C124.579 51.376 123.595 51.616 122.731 52.096C121.891 52.576 121.219 53.272 120.715 54.184C120.211 55.072 119.959 56.14 119.959 57.388C119.959 58.612 120.211 59.68 120.715 60.592C121.219 61.504 121.891 62.2 122.731 62.68C123.595 63.16 124.567 63.4 125.647 63.4ZM158.295 67.252C156.447 67.252 154.779 66.844 153.291 66.028C151.827 65.188 150.675 64.036 149.835 62.572C148.995 61.108 148.575 59.38 148.575 57.388C148.575 55.396 148.995 53.668 149.835 52.204C150.675 50.74 151.827 49.6 153.291 48.784C154.779 47.968 156.447 47.56 158.295 47.56C159.903 47.56 161.343 47.92 162.615 48.64C163.887 49.336 164.895 50.404 165.639 51.844C166.383 53.284 166.755 55.132 166.755 57.388C166.755 59.62 166.395 61.468 165.675 62.932C164.955 64.372 163.959 65.452 162.687 66.172C161.415 66.892 159.951 67.252 158.295 67.252ZM158.835 63.4C159.915 63.4 160.875 63.16 161.715 62.68C162.579 62.2 163.263 61.504 163.767 60.592C164.295 59.68 164.559 58.612 164.559 57.388C164.559 56.14 164.295 55.072 163.767 54.184C163.263 53.272 162.579 52.576 161.715 52.096C160.875 51.616 159.915 51.376 158.835 51.376C157.755 51.376 156.783 51.616 155.919 52.096C155.079 52.576 154.395 53.272 153.867 54.184C153.363 55.072 153.111 56.14 153.111 57.388C153.111 58.612 153.363 59.68 153.867 60.592C154.395 61.504 155.079 62.2 155.919 62.68C156.783 63.16 157.755 63.4 158.835 63.4ZM164.667 67V62.464L164.847 57.352L164.487 52.24V40.288H168.951V67H164.667ZM186.718 67V63.112L186.466 62.284V55.48C186.466 54.16 186.07 53.14 185.278 52.42C184.486 51.676 183.286 51.304 181.678 51.304C180.598 51.304 179.53 51.472 178.474 51.808C177.442 52.144 176.566 52.612 175.846 53.212L174.082 49.936C175.114 49.144 176.338 48.556 177.754 48.172C179.194 47.764 180.682 47.56 182.218 47.56C185.002 47.56 187.15 48.232 188.662 49.576C190.198 50.896 190.966 52.948 190.966 55.732V67H186.718ZM180.67 67.252C179.23 67.252 177.97 67.012 176.89 66.532C175.81 66.028 174.97 65.344 174.37 64.48C173.794 63.592 173.506 62.596 173.506 61.492C173.506 60.412 173.758 59.44 174.262 58.576C174.79 57.712 175.642 57.028 176.818 56.524C177.994 56.02 179.554 55.768 181.498 55.768H187.078V58.756H181.822C180.286 58.756 179.254 59.008 178.726 59.512C178.198 59.992 177.934 60.592 177.934 61.312C177.934 62.128 178.258 62.776 178.906 63.256C179.554 63.736 180.454 63.976 181.606 63.976C182.71 63.976 183.694 63.724 184.558 63.22C185.446 62.716 186.082 61.972 186.466 60.988L187.222 63.688C186.79 64.816 186.01 65.692 184.882 66.316C183.778 66.94 182.374 67.252 180.67 67.252ZM211.802 67L203.558 47.776H208.238L215.33 64.732H213.026L220.37 47.776H224.69L216.446 67H211.802ZM238.749 67V63.112L238.497 62.284V55.48C238.497 54.16 238.101 53.14 237.309 52.42C236.517 51.676 235.317 51.304 233.709 51.304C232.629 51.304 231.561 51.472 230.505 51.808C229.473 52.144 228.597 52.612 227.877 53.212L226.113 49.936C227.145 49.144 228.369 48.556 229.785 48.172C231.225 47.764 232.713 47.56 234.249 47.56C237.033 47.56 239.181 48.232 240.693 49.576C242.229 50.896 242.997 52.948 242.997 55.732V67H238.749ZM232.701 67.252C231.261 67.252 230.001 67.012 228.921 66.532C227.841 66.028 227.001 65.344 226.401 64.48C225.825 63.592 225.537 62.596 225.537 61.492C225.537 60.412 225.789 59.44 226.293 58.576C226.821 57.712 227.673 57.028 228.849 56.524C230.025 56.02 231.585 55.768 233.529 55.768H239.109V58.756H233.853C232.317 58.756 231.285 59.008 230.757 59.512C230.229 59.992 229.965 60.592 229.965 61.312C229.965 62.128 230.289 62.776 230.937 63.256C231.585 63.736 232.485 63.976 233.637 63.976C234.741 63.976 235.725 63.724 236.589 63.22C237.477 62.716 238.113 61.972 238.497 60.988L239.253 63.688C238.821 64.816 238.041 65.692 236.913 66.316C235.809 66.94 234.405 67.252 232.701 67.252ZM257.519 74.236C255.743 74.236 254.003 73.996 252.299 73.516C250.619 73.06 249.239 72.388 248.159 71.5L250.175 68.116C251.015 68.812 252.071 69.364 253.343 69.772C254.639 70.204 255.947 70.42 257.267 70.42C259.379 70.42 260.927 69.928 261.911 68.944C262.895 67.984 263.387 66.532 263.387 64.588V61.168L263.747 56.812L263.603 52.456V47.776H267.887V64.084C267.887 67.564 266.999 70.12 265.223 71.752C263.447 73.408 260.879 74.236 257.519 74.236ZM256.943 66.136C255.119 66.136 253.463 65.752 251.975 64.984C250.511 64.192 249.347 63.1 248.483 61.708C247.643 60.316 247.223 58.684 247.223 56.812C247.223 54.964 247.643 53.344 248.483 51.952C249.347 50.56 250.511 49.48 251.975 48.712C253.463 47.944 255.119 47.56 256.943 47.56C258.575 47.56 260.039 47.884 261.335 48.532C262.631 49.18 263.663 50.188 264.431 51.556C265.223 52.924 265.619 54.676 265.619 56.812C265.619 58.948 265.223 60.712 264.431 62.104C263.663 63.472 262.631 64.492 261.335 65.164C260.039 65.812 258.575 66.136 256.943 66.136ZM257.627 62.32C258.755 62.32 259.763 62.092 260.651 61.636C261.539 61.156 262.223 60.508 262.703 59.692C263.207 58.852 263.459 57.892 263.459 56.812C263.459 55.732 263.207 54.784 262.703 53.968C262.223 53.128 261.539 52.492 260.651 52.06C259.763 51.604 258.755 51.376 257.627 51.376C256.499 51.376 255.479 51.604 254.567 52.06C253.679 52.492 252.983 53.128 252.479 53.968C251.999 54.784 251.759 55.732 251.759 56.812C251.759 57.892 251.999 58.852 252.479 59.692C252.983 60.508 253.679 61.156 254.567 61.636C255.479 62.092 256.499 62.32 257.627 62.32ZM285.648 67V63.112L285.396 62.284V55.48C285.396 54.16 285 53.14 284.208 52.42C283.416 51.676 282.216 51.304 280.608 51.304C279.528 51.304 278.46 51.472 277.404 51.808C276.372 52.144 275.496 52.612 274.776 53.212L273.012 49.936C274.044 49.144 275.268 48.556 276.684 48.172C278.124 47.764 279.612 47.56 281.148 47.56C283.932 47.56 286.08 48.232 287.592 49.576C289.128 50.896 289.896 52.948 289.896 55.732V67H285.648ZM279.6 67.252C278.16 67.252 276.9 67.012 275.82 66.532C274.74 66.028 273.9 65.344 273.3 64.48C272.724 63.592 272.436 62.596 272.436 61.492C272.436 60.412 272.688 59.44 273.192 58.576C273.72 57.712 274.572 57.028 275.748 56.524C276.924 56.02 278.484 55.768 280.428 55.768H286.008V58.756H280.752C279.216 58.756 278.184 59.008 277.656 59.512C277.128 59.992 276.864 60.592 276.864 61.312C276.864 62.128 277.188 62.776 277.836 63.256C278.484 63.736 279.384 63.976 280.536 63.976C281.64 63.976 282.624 63.724 283.488 63.22C284.376 62.716 285.012 61.972 285.396 60.988L286.152 63.688C285.72 64.816 284.94 65.692 283.812 66.316C282.708 66.94 281.304 67.252 279.6 67.252Z" fill="black"/>
<path d="M33.3615 115V98.2H35.9295L46.4655 111.136H45.1935V98.2H48.2895V115H45.7215L35.1855 102.064H36.4575V115H33.3615ZM58.2632 115.168C56.9512 115.168 55.7832 114.888 54.7592 114.328C53.7352 113.752 52.9272 112.968 52.3352 111.976C51.7432 110.984 51.4472 109.856 51.4472 108.592C51.4472 107.312 51.7432 106.184 52.3352 105.208C52.9272 104.216 53.7352 103.44 54.7592 102.88C55.7832 102.32 56.9512 102.04 58.2632 102.04C59.5912 102.04 60.7672 102.32 61.7912 102.88C62.8312 103.44 63.6392 104.208 64.2152 105.184C64.8072 106.16 65.1032 107.296 65.1032 108.592C65.1032 109.856 64.8072 110.984 64.2152 111.976C63.6392 112.968 62.8312 113.752 61.7912 114.328C60.7672 114.888 59.5912 115.168 58.2632 115.168ZM58.2632 112.6C58.9992 112.6 59.6552 112.44 60.2312 112.12C60.8072 111.8 61.2552 111.336 61.5752 110.728C61.9112 110.12 62.0792 109.408 62.0792 108.592C62.0792 107.76 61.9112 107.048 61.5752 106.456C61.2552 105.848 60.8072 105.384 60.2312 105.064C59.6552 104.744 59.0072 104.584 58.2872 104.584C57.5512 104.584 56.8952 104.744 56.3192 105.064C55.7592 105.384 55.3112 105.848 54.9752 106.456C54.6392 107.048 54.4712 107.76 54.4712 108.592C54.4712 109.408 54.6392 110.12 54.9752 110.728C55.3112 111.336 55.7592 111.8 56.3192 112.12C56.8952 112.44 57.5432 112.6 58.2632 112.6ZM84.1479 102.04C85.1719 102.04 86.0759 102.24 86.8599 102.64C87.6599 103.04 88.2839 103.656 88.7319 104.488C89.1799 105.304 89.4039 106.36 89.4039 107.656V115H86.4039V108.04C86.4039 106.904 86.1559 106.056 85.6599 105.496C85.1639 104.936 84.4519 104.656 83.5239 104.656C82.8679 104.656 82.2839 104.8 81.7719 105.088C81.2759 105.376 80.8839 105.8 80.5959 106.36C80.3239 106.92 80.1879 107.632 80.1879 108.496V115H77.1879V108.04C77.1879 106.904 76.9399 106.056 76.4439 105.496C75.9479 104.936 75.2359 104.656 74.3079 104.656C73.6519 104.656 73.0679 104.8 72.5559 105.088C72.0599 105.376 71.6679 105.8 71.3799 106.36C71.1079 106.92 70.9719 107.632 70.9719 108.496V115H67.9719V102.184H70.8279V105.592L70.3239 104.584C70.7559 103.752 71.3799 103.12 72.1959 102.688C73.0279 102.256 73.9719 102.04 75.0279 102.04C76.2279 102.04 77.2679 102.336 78.1479 102.928C79.0439 103.52 79.6359 104.416 79.9239 105.616L78.7479 105.208C79.1639 104.248 79.8519 103.48 80.8119 102.904C81.7719 102.328 82.8839 102.04 84.1479 102.04ZM99.285 115.168C97.861 115.168 96.613 114.888 95.541 114.328C94.485 113.752 93.661 112.968 93.069 111.976C92.493 110.984 92.205 109.856 92.205 108.592C92.205 107.312 92.485 106.184 93.045 105.208C93.621 104.216 94.405 103.44 95.397 102.88C96.405 102.32 97.549 102.04 98.829 102.04C100.077 102.04 101.189 102.312 102.165 102.856C103.141 103.4 103.909 104.168 104.469 105.16C105.029 106.152 105.309 107.32 105.309 108.664C105.309 108.792 105.301 108.936 105.285 109.096C105.285 109.256 105.277 109.408 105.261 109.552H94.581V107.56H103.677L102.501 108.184C102.517 107.448 102.365 106.8 102.045 106.24C101.725 105.68 101.285 105.24 100.725 104.92C100.181 104.6 99.549 104.44 98.829 104.44C98.093 104.44 97.445 104.6 96.885 104.92C96.341 105.24 95.909 105.688 95.589 106.264C95.285 106.824 95.133 107.488 95.133 108.256V108.736C95.133 109.504 95.309 110.184 95.661 110.776C96.013 111.368 96.509 111.824 97.149 112.144C97.789 112.464 98.525 112.624 99.357 112.624C100.077 112.624 100.725 112.512 101.301 112.288C101.877 112.064 102.389 111.712 102.837 111.232L104.445 113.08C103.869 113.752 103.141 114.272 102.261 114.64C101.397 114.992 100.405 115.168 99.285 115.168ZM120.247 115.168C119.015 115.168 117.903 114.896 116.911 114.352C115.935 113.792 115.167 113.024 114.607 112.048C114.047 111.072 113.767 109.92 113.767 108.592C113.767 107.264 114.047 106.112 114.607 105.136C115.167 104.16 115.935 103.4 116.911 102.856C117.903 102.312 119.015 102.04 120.247 102.04C121.319 102.04 122.279 102.28 123.127 102.76C123.975 103.224 124.647 103.936 125.143 104.896C125.639 105.856 125.887 107.088 125.887 108.592C125.887 110.08 125.647 111.312 125.167 112.288C124.687 113.248 124.023 113.968 123.175 114.448C122.327 114.928 121.351 115.168 120.247 115.168ZM120.607 112.6C121.327 112.6 121.967 112.44 122.527 112.12C123.103 111.8 123.559 111.336 123.895 110.728C124.247 110.12 124.423 109.408 124.423 108.592C124.423 107.76 124.247 107.048 123.895 106.456C123.559 105.848 123.103 105.384 122.527 105.064C121.967 104.744 121.327 104.584 120.607 104.584C119.887 104.584 119.239 104.744 118.663 105.064C118.103 105.384 117.647 105.848 117.295 106.456C116.959 107.048 116.791 107.76 116.791 108.592C116.791 109.408 116.959 110.12 117.295 110.728C117.647 111.336 118.103 111.8 118.663 112.12C119.239 112.44 119.887 112.6 120.607 112.6ZM124.495 115V111.976L124.615 108.568L124.375 105.16V97.192H127.351V115H124.495ZM139.196 115V112.408L139.028 111.856V107.32C139.028 106.44 138.764 105.76 138.236 105.28C137.708 104.784 136.908 104.536 135.836 104.536C135.116 104.536 134.404 104.648 133.7 104.872C133.012 105.096 132.428 105.408 131.948 105.808L130.772 103.624C131.46 103.096 132.276 102.704 133.22 102.448C134.18 102.176 135.172 102.04 136.196 102.04C138.052 102.04 139.484 102.488 140.492 103.384C141.516 104.264 142.028 105.632 142.028 107.488V115H139.196ZM135.164 115.168C134.204 115.168 133.364 115.008 132.644 114.688C131.924 114.352 131.364 113.896 130.964 113.32C130.58 112.728 130.388 112.064 130.388 111.328C130.388 110.608 130.556 109.96 130.892 109.384C131.244 108.808 131.812 108.352 132.596 108.016C133.38 107.68 134.42 107.512 135.716 107.512H139.436V109.504H135.932C134.908 109.504 134.22 109.672 133.868 110.008C133.516 110.328 133.34 110.728 133.34 111.208C133.34 111.752 133.556 112.184 133.988 112.504C134.42 112.824 135.02 112.984 135.788 112.984C136.524 112.984 137.18 112.816 137.756 112.48C138.348 112.144 138.772 111.648 139.028 110.992L139.532 112.792C139.244 113.544 138.724 114.128 137.972 114.544C137.236 114.96 136.3 115.168 135.164 115.168ZM158.535 115.168C157.111 115.168 155.863 114.888 154.791 114.328C153.735 113.752 152.911 112.968 152.319 111.976C151.743 110.984 151.455 109.856 151.455 108.592C151.455 107.312 151.735 106.184 152.295 105.208C152.871 104.216 153.655 103.44 154.647 102.88C155.655 102.32 156.799 102.04 158.079 102.04C159.327 102.04 160.439 102.312 161.415 102.856C162.391 103.4 163.159 104.168 163.719 105.16C164.279 106.152 164.559 107.32 164.559 108.664C164.559 108.792 164.551 108.936 164.535 109.096C164.535 109.256 164.527 109.408 164.511 109.552H153.831V107.56H162.927L161.751 108.184C161.767 107.448 161.615 106.8 161.295 106.24C160.975 105.68 160.535 105.24 159.975 104.92C159.431 104.6 158.799 104.44 158.079 104.44C157.343 104.44 156.695 104.6 156.135 104.92C155.591 105.24 155.159 105.688 154.839 106.264C154.535 106.824 154.383 107.488 154.383 108.256V108.736C154.383 109.504 154.559 110.184 154.911 110.776C155.263 111.368 155.759 111.824 156.399 112.144C157.039 112.464 157.775 112.624 158.607 112.624C159.327 112.624 159.975 112.512 160.551 112.288C161.127 112.064 161.639 111.712 162.087 111.232L163.695 113.08C163.119 113.752 162.391 114.272 161.511 114.64C160.647 114.992 159.655 115.168 158.535 115.168ZM183.617 102.04C184.641 102.04 185.545 102.24 186.329 102.64C187.129 103.04 187.753 103.656 188.201 104.488C188.649 105.304 188.873 106.36 188.873 107.656V115H185.873V108.04C185.873 106.904 185.625 106.056 185.129 105.496C184.633 104.936 183.921 104.656 182.993 104.656C182.337 104.656 181.753 104.8 181.241 105.088C180.745 105.376 180.353 105.8 180.065 106.36C179.793 106.92 179.657 107.632 179.657 108.496V115H176.657V108.04C176.657 106.904 176.409 106.056 175.913 105.496C175.417 104.936 174.705 104.656 173.777 104.656C173.121 104.656 172.537 104.8 172.025 105.088C171.529 105.376 171.137 105.8 170.849 106.36C170.577 106.92 170.441 107.632 170.441 108.496V115H167.441V102.184H170.297V105.592L169.793 104.584C170.225 103.752 170.849 103.12 171.665 102.688C172.497 102.256 173.441 102.04 174.497 102.04C175.697 102.04 176.737 102.336 177.617 102.928C178.513 103.52 179.105 104.416 179.393 105.616L178.217 105.208C178.633 104.248 179.321 103.48 180.281 102.904C181.241 102.328 182.353 102.04 183.617 102.04ZM199.81 115.168C198.77 115.168 197.818 114.928 196.954 114.448C196.106 113.968 195.426 113.248 194.914 112.288C194.418 111.312 194.17 110.08 194.17 108.592C194.17 107.088 194.41 105.856 194.89 104.896C195.386 103.936 196.058 103.224 196.906 102.76C197.754 102.28 198.722 102.04 199.81 102.04C201.074 102.04 202.186 102.312 203.146 102.856C204.122 103.4 204.89 104.16 205.45 105.136C206.026 106.112 206.314 107.264 206.314 108.592C206.314 109.92 206.026 111.08 205.45 112.072C204.89 113.048 204.122 113.808 203.146 114.352C202.186 114.896 201.074 115.168 199.81 115.168ZM192.706 119.656V102.184H195.562V105.208L195.466 108.616L195.706 112.024V119.656H192.706ZM199.474 112.6C200.194 112.6 200.834 112.44 201.394 112.12C201.97 111.8 202.426 111.336 202.762 110.728C203.098 110.12 203.266 109.408 203.266 108.592C203.266 107.76 203.098 107.048 202.762 106.456C202.426 105.848 201.97 105.384 201.394 105.064C200.834 104.744 200.194 104.584 199.474 104.584C198.754 104.584 198.106 104.744 197.53 105.064C196.954 105.384 196.498 105.848 196.162 106.456C195.826 107.048 195.658 107.76 195.658 108.592C195.658 109.408 195.826 110.12 196.162 110.728C196.498 111.336 196.954 111.8 197.53 112.12C198.106 112.44 198.754 112.6 199.474 112.6ZM209.159 115V102.184H212.015V105.712L211.679 104.68C212.063 103.816 212.663 103.16 213.479 102.712C214.311 102.264 215.343 102.04 216.575 102.04V104.896C216.447 104.864 216.327 104.848 216.215 104.848C216.103 104.832 215.991 104.824 215.879 104.824C214.743 104.824 213.839 105.16 213.167 105.832C212.495 106.488 212.159 107.472 212.159 108.784V115H209.159ZM225.027 115.168C223.603 115.168 222.355 114.888 221.283 114.328C220.227 113.752 219.403 112.968 218.811 111.976C218.235 110.984 217.947 109.856 217.947 108.592C217.947 107.312 218.227 106.184 218.787 105.208C219.363 104.216 220.147 103.44 221.139 102.88C222.147 102.32 223.291 102.04 224.571 102.04C225.819 102.04 226.931 102.312 227.907 102.856C228.883 103.4 229.651 104.168 230.211 105.16C230.771 106.152 231.051 107.32 231.051 108.664C231.051 108.792 231.043 108.936 231.027 109.096C231.027 109.256 231.019 109.408 231.003 109.552H220.323V107.56H229.419L228.243 108.184C228.259 107.448 228.107 106.8 227.787 106.24C227.467 105.68 227.027 105.24 226.467 104.92C225.923 104.6 225.291 104.44 224.571 104.44C223.835 104.44 223.187 104.6 222.627 104.92C222.083 105.24 221.651 105.688 221.331 106.264C221.027 106.824 220.875 107.488 220.875 108.256V108.736C220.875 109.504 221.051 110.184 221.403 110.776C221.755 111.368 222.251 111.824 222.891 112.144C223.531 112.464 224.267 112.624 225.099 112.624C225.819 112.624 226.467 112.512 227.043 112.288C227.619 112.064 228.131 111.712 228.579 111.232L230.187 113.08C229.611 113.752 228.883 114.272 228.003 114.64C227.139 114.992 226.147 115.168 225.027 115.168ZM237.893 115.168C236.821 115.168 235.789 115.032 234.797 114.76C233.821 114.472 233.045 114.128 232.469 113.728L233.621 111.448C234.197 111.816 234.885 112.12 235.685 112.36C236.485 112.6 237.285 112.72 238.085 112.72C239.029 112.72 239.709 112.592 240.125 112.336C240.557 112.08 240.773 111.736 240.773 111.304C240.773 110.952 240.629 110.688 240.341 110.512C240.053 110.32 239.677 110.176 239.213 110.08C238.749 109.984 238.229 109.896 237.653 109.816C237.093 109.736 236.525 109.632 235.949 109.504C235.389 109.36 234.877 109.16 234.413 108.904C233.949 108.632 233.573 108.272 233.285 107.824C232.997 107.376 232.853 106.784 232.853 106.048C232.853 105.232 233.085 104.528 233.549 103.936C234.013 103.328 234.661 102.864 235.493 102.544C236.341 102.208 237.341 102.04 238.493 102.04C239.357 102.04 240.229 102.136 241.109 102.328C241.989 102.52 242.717 102.792 243.293 103.144L242.141 105.424C241.533 105.056 240.917 104.808 240.293 104.68C239.685 104.536 239.077 104.464 238.469 104.464C237.557 104.464 236.877 104.6 236.429 104.872C235.997 105.144 235.781 105.488 235.781 105.904C235.781 106.288 235.925 106.576 236.213 106.768C236.501 106.96 236.877 107.112 237.341 107.224C237.805 107.336 238.317 107.432 238.877 107.512C239.453 107.576 240.021 107.68 240.581 107.824C241.141 107.968 241.653 108.168 242.117 108.424C242.597 108.664 242.981 109.008 243.269 109.456C243.557 109.904 243.701 110.488 243.701 111.208C243.701 112.008 243.461 112.704 242.981 113.296C242.517 113.888 241.853 114.352 240.989 114.688C240.125 115.008 239.093 115.168 237.893 115.168ZM254.18 115V112.408L254.012 111.856V107.32C254.012 106.44 253.748 105.76 253.22 105.28C252.692 104.784 251.892 104.536 250.82 104.536C250.1 104.536 249.388 104.648 248.684 104.872C247.996 105.096 247.412 105.408 246.932 105.808L245.756 103.624C246.444 103.096 247.26 102.704 248.204 102.448C249.164 102.176 250.156 102.04 251.18 102.04C253.036 102.04 254.468 102.488 255.476 103.384C256.5 104.264 257.012 105.632 257.012 107.488V115H254.18ZM250.148 115.168C249.188 115.168 248.348 115.008 247.628 114.688C246.908 114.352 246.348 113.896 245.948 113.32C245.564 112.728 245.372 112.064 245.372 111.328C245.372 110.608 245.54 109.96 245.876 109.384C246.228 108.808 246.796 108.352 247.58 108.016C248.364 107.68 249.404 107.512 250.7 107.512H254.42V109.504H250.916C249.892 109.504 249.204 109.672 248.852 110.008C248.5 110.328 248.324 110.728 248.324 111.208C248.324 111.752 248.54 112.184 248.972 112.504C249.404 112.824 250.004 112.984 250.772 112.984C251.508 112.984 252.164 112.816 252.74 112.48C253.332 112.144 253.756 111.648 254.012 110.992L254.516 112.792C254.228 113.544 253.708 114.128 252.956 114.544C252.22 114.96 251.284 115.168 250.148 115.168Z" fill="black"/>
<path d="M35.9566 168.16C35.13 168.16 34.3566 167.987 33.6366 167.64C32.9166 167.293 32.33 166.793 31.8766 166.14L33.0366 164.78C33.4233 165.313 33.8566 165.727 34.3366 166.02C34.83 166.3 35.37 166.44 35.9566 166.44C37.5566 166.44 38.3566 165.493 38.3566 163.6V155.74H33.2966V154H40.3366V163.5C40.3366 165.06 39.9633 166.227 39.2166 167C38.4833 167.773 37.3966 168.16 35.9566 168.16ZM48.5905 168.12C47.6839 168.12 46.8839 167.953 46.1905 167.62C45.5105 167.287 44.9772 166.78 44.5905 166.1C44.2172 165.407 44.0305 164.54 44.0305 163.5V157.4H45.9505V163.28C45.9505 164.32 46.1972 165.1 46.6905 165.62C47.1972 166.14 47.9039 166.4 48.8105 166.4C49.4772 166.4 50.0572 166.267 50.5505 166C51.0439 165.72 51.4239 165.32 51.6905 164.8C51.9572 164.267 52.0905 163.627 52.0905 162.88V157.4H54.0105V168H52.1905V165.14L52.4905 165.9C52.1439 166.607 51.6239 167.153 50.9305 167.54C50.2372 167.927 49.4572 168.12 48.5905 168.12ZM47.5305 155.86L50.2505 153.26H52.6905L49.3305 155.86H47.5305ZM63.3257 157.3C64.1924 157.3 64.9524 157.467 65.6057 157.8C66.2724 158.133 66.7924 158.64 67.1657 159.32C67.539 160 67.7257 160.86 67.7257 161.9V168H65.8057V162.12C65.8057 161.093 65.5524 160.32 65.0457 159.8C64.5524 159.28 63.8524 159.02 62.9457 159.02C62.2657 159.02 61.6724 159.153 61.1657 159.42C60.659 159.687 60.2657 160.08 59.9857 160.6C59.719 161.12 59.5857 161.767 59.5857 162.54V168H57.6657V157.4H59.5057V160.26L59.2057 159.5C59.5524 158.807 60.0857 158.267 60.8057 157.88C61.5257 157.493 62.3657 157.3 63.3257 157.3ZM71.279 168V157.4H73.199V168H71.279ZM72.239 155.36C71.8657 155.36 71.5523 155.24 71.299 155C71.059 154.76 70.939 154.467 70.939 154.12C70.939 153.76 71.059 153.46 71.299 153.22C71.5523 152.98 71.8657 152.86 72.239 152.86C72.6123 152.86 72.919 152.98 73.159 153.22C73.4123 153.447 73.539 153.733 73.539 154.08C73.539 154.44 73.419 154.747 73.179 155C72.939 155.24 72.6257 155.36 72.239 155.36ZM81.4049 168.12C80.3383 168.12 79.3916 167.887 78.5649 167.42C77.7383 166.953 77.0849 166.313 76.6049 165.5C76.1249 164.673 75.8849 163.74 75.8849 162.7C75.8849 161.647 76.1249 160.713 76.6049 159.9C77.0849 159.087 77.7383 158.453 78.5649 158C79.3916 157.533 80.3383 157.3 81.4049 157.3C82.4583 157.3 83.3983 157.533 84.2249 158C85.0649 158.453 85.7183 159.087 86.1849 159.9C86.6649 160.7 86.9049 161.633 86.9049 162.7C86.9049 163.753 86.6649 164.687 86.1849 165.5C85.7183 166.313 85.0649 166.953 84.2249 167.42C83.3983 167.887 82.4583 168.12 81.4049 168.12ZM81.4049 166.44C82.0849 166.44 82.6916 166.287 83.2249 165.98C83.7716 165.673 84.1983 165.24 84.5049 164.68C84.8116 164.107 84.9649 163.447 84.9649 162.7C84.9649 161.94 84.8116 161.287 84.5049 160.74C84.1983 160.18 83.7716 159.747 83.2249 159.44C82.6916 159.133 82.0849 158.98 81.4049 158.98C80.7249 158.98 80.1183 159.133 79.5849 159.44C79.0516 159.747 78.6249 160.18 78.3049 160.74C77.9849 161.287 77.8249 161.94 77.8249 162.7C77.8249 163.447 77.9849 164.107 78.3049 164.68C78.6249 165.24 79.0516 165.673 79.5849 165.98C80.1183 166.287 80.7249 166.44 81.4049 166.44ZM89.5602 168V157.4H91.4002V160.28L91.2202 159.56C91.5136 158.827 92.0069 158.267 92.7002 157.88C93.3936 157.493 94.2469 157.3 95.2602 157.3V159.16C95.1802 159.147 95.1002 159.14 95.0202 159.14C94.9536 159.14 94.8869 159.14 94.8202 159.14C93.7936 159.14 92.9802 159.447 92.3802 160.06C91.7802 160.673 91.4802 161.56 91.4802 162.72V168H89.5602Z" fill="black"/>
<path d="M44.3021 186H46.3021V200H44.3021V186ZM36.2621 200H34.2621V186H36.2621V200ZM44.4821 193.76H36.0621V192.02H44.4821V193.76ZM54.7526 200.12C53.6859 200.12 52.7392 199.887 51.9126 199.42C51.0859 198.953 50.4326 198.313 49.9526 197.5C49.4726 196.673 49.2326 195.74 49.2326 194.7C49.2326 193.647 49.4726 192.713 49.9526 191.9C50.4326 191.087 51.0859 190.453 51.9126 190C52.7392 189.533 53.6859 189.3 54.7526 189.3C55.8059 189.3 56.7459 189.533 57.5726 190C58.4126 190.453 59.0659 191.087 59.5326 191.9C60.0126 192.7 60.2526 193.633 60.2526 194.7C60.2526 195.753 60.0126 196.687 59.5326 197.5C59.0659 198.313 58.4126 198.953 57.5726 199.42C56.7459 199.887 55.8059 200.12 54.7526 200.12ZM54.7526 198.44C55.4326 198.44 56.0392 198.287 56.5726 197.98C57.1192 197.673 57.5459 197.24 57.8526 196.68C58.1592 196.107 58.3126 195.447 58.3126 194.7C58.3126 193.94 58.1592 193.287 57.8526 192.74C57.5459 192.18 57.1192 191.747 56.5726 191.44C56.0392 191.133 55.4326 190.98 54.7526 190.98C54.0726 190.98 53.4659 191.133 52.9326 191.44C52.3992 191.747 51.9726 192.18 51.6526 192.74C51.3326 193.287 51.1726 193.94 51.1726 194.7C51.1726 195.447 51.3326 196.107 51.6526 196.68C51.9726 197.24 52.3992 197.673 52.9326 197.98C53.4659 198.287 54.0726 198.44 54.7526 198.44ZM76.1679 189.3C77.0212 189.3 77.7746 189.467 78.4279 189.8C79.0812 190.133 79.5879 190.64 79.9479 191.32C80.3212 192 80.5079 192.86 80.5079 193.9V200H78.5879V194.12C78.5879 193.093 78.3479 192.32 77.8679 191.8C77.3879 191.28 76.7146 191.02 75.8479 191.02C75.2079 191.02 74.6479 191.153 74.1679 191.42C73.6879 191.687 73.3146 192.08 73.0479 192.6C72.7946 193.12 72.6679 193.767 72.6679 194.54V200H70.7479V194.12C70.7479 193.093 70.5079 192.32 70.0279 191.8C69.5612 191.28 68.8879 191.02 68.0079 191.02C67.3812 191.02 66.8279 191.153 66.3479 191.42C65.8679 191.687 65.4946 192.08 65.2279 192.6C64.9612 193.12 64.8279 193.767 64.8279 194.54V200H62.9079V189.4H64.7479V192.22L64.4479 191.5C64.7812 190.807 65.2946 190.267 65.9879 189.88C66.6812 189.493 67.4879 189.3 68.4079 189.3C69.4212 189.3 70.2946 189.553 71.0279 190.06C71.7612 190.553 72.2412 191.307 72.4679 192.32L71.6879 192C72.0079 191.187 72.5679 190.533 73.3679 190.04C74.1679 189.547 75.1012 189.3 76.1679 189.3ZM88.7607 200.12C87.6274 200.12 86.6274 199.887 85.7607 199.42C84.9074 198.953 84.2407 198.313 83.7607 197.5C83.294 196.687 83.0607 195.753 83.0607 194.7C83.0607 193.647 83.2874 192.713 83.7407 191.9C84.2074 191.087 84.8407 190.453 85.6407 190C86.454 189.533 87.3674 189.3 88.3807 189.3C89.4074 189.3 90.314 189.527 91.1007 189.98C91.8874 190.433 92.5007 191.073 92.9407 191.9C93.394 192.713 93.6207 193.667 93.6207 194.76C93.6207 194.84 93.614 194.933 93.6007 195.04C93.6007 195.147 93.594 195.247 93.5807 195.34H84.5607V193.96H92.5807L91.8007 194.44C91.814 193.76 91.674 193.153 91.3807 192.62C91.0874 192.087 90.6807 191.673 90.1607 191.38C89.654 191.073 89.0607 190.92 88.3807 190.92C87.714 190.92 87.1207 191.073 86.6007 191.38C86.0807 191.673 85.674 192.093 85.3807 192.64C85.0874 193.173 84.9407 193.787 84.9407 194.48V194.8C84.9407 195.507 85.1007 196.14 85.4207 196.7C85.754 197.247 86.214 197.673 86.8007 197.98C87.3874 198.287 88.0607 198.44 88.8207 198.44C89.4474 198.44 90.014 198.333 90.5207 198.12C91.0407 197.907 91.494 197.587 91.8807 197.16L92.9407 198.4C92.4607 198.96 91.8607 199.387 91.1407 199.68C90.434 199.973 89.6407 200.12 88.7607 200.12ZM108.258 200.16C107.191 200.16 106.198 199.98 105.278 199.62C104.371 199.26 103.585 198.76 102.918 198.12C102.251 197.467 101.731 196.707 101.358 195.84C100.985 194.973 100.798 194.027 100.798 193C100.798 191.973 100.985 191.027 101.358 190.16C101.731 189.293 102.251 188.54 102.918 187.9C103.585 187.247 104.371 186.74 105.278 186.38C106.185 186.02 107.178 185.84 108.258 185.84C109.325 185.84 110.305 186.02 111.198 186.38C112.105 186.727 112.891 187.227 113.558 187.88C114.238 188.52 114.758 189.273 115.118 190.14C115.491 191.007 115.678 191.96 115.678 193C115.678 194.04 115.491 194.993 115.118 195.86C114.758 196.727 114.238 197.487 113.558 198.14C112.891 198.78 112.105 199.28 111.198 199.64C110.305 199.987 109.325 200.16 108.258 200.16ZM108.258 198.38C109.031 198.38 109.745 198.247 110.398 197.98C111.065 197.713 111.638 197.34 112.118 196.86C112.611 196.367 112.991 195.793 113.258 195.14C113.538 194.487 113.678 193.773 113.678 193C113.678 192.227 113.538 191.513 113.258 190.86C112.991 190.207 112.611 189.64 112.118 189.16C111.638 188.667 111.065 188.287 110.398 188.02C109.745 187.753 109.031 187.62 108.258 187.62C107.471 187.62 106.745 187.753 106.078 188.02C105.425 188.287 104.851 188.667 104.358 189.16C103.865 189.64 103.478 190.207 103.198 190.86C102.931 191.513 102.798 192.227 102.798 193C102.798 193.773 102.931 194.487 103.198 195.14C103.478 195.793 103.865 196.367 104.358 196.86C104.851 197.34 105.425 197.713 106.078 197.98C106.745 198.247 107.471 198.38 108.258 198.38ZM118.735 200V188.46C118.735 187.42 119.035 186.593 119.635 185.98C120.248 185.353 121.115 185.04 122.235 185.04C122.648 185.04 123.041 185.093 123.415 185.2C123.801 185.293 124.128 185.447 124.395 185.66L123.815 187.12C123.615 186.96 123.388 186.84 123.135 186.76C122.881 186.667 122.615 186.62 122.335 186.62C121.775 186.62 121.348 186.78 121.055 187.1C120.761 187.407 120.615 187.867 120.615 188.48V189.9L120.655 190.78V200H118.735ZM116.935 190.98V189.4H123.695V190.98H116.935ZM125.786 200V188.46C125.786 187.42 126.086 186.593 126.686 185.98C127.299 185.353 128.166 185.04 129.286 185.04C129.699 185.04 130.092 185.093 130.466 185.2C130.852 185.293 131.179 185.447 131.446 185.66L130.866 187.12C130.666 186.96 130.439 186.84 130.186 186.76C129.932 186.667 129.666 186.62 129.386 186.62C128.826 186.62 128.399 186.78 128.106 187.1C127.812 187.407 127.666 187.867 127.666 188.48V189.9L127.706 190.78V200H125.786ZM123.986 190.98V189.4H130.746V190.98H123.986ZM132.566 200V189.4H134.486V200H132.566ZM133.526 187.36C133.152 187.36 132.839 187.24 132.586 187C132.346 186.76 132.226 186.467 132.226 186.12C132.226 185.76 132.346 185.46 132.586 185.22C132.839 184.98 133.152 184.86 133.526 184.86C133.899 184.86 134.206 184.98 134.446 185.22C134.699 185.447 134.826 185.733 134.826 186.08C134.826 186.44 134.706 186.747 134.466 187C134.226 187.24 133.912 187.36 133.526 187.36ZM142.762 200.12C141.682 200.12 140.716 199.887 139.862 199.42C139.022 198.953 138.362 198.313 137.882 197.5C137.402 196.687 137.162 195.753 137.162 194.7C137.162 193.647 137.402 192.713 137.882 191.9C138.362 191.087 139.022 190.453 139.862 190C140.716 189.533 141.682 189.3 142.762 189.3C143.722 189.3 144.576 189.493 145.322 189.88C146.082 190.253 146.669 190.813 147.082 191.56L145.622 192.5C145.276 191.98 144.849 191.6 144.342 191.36C143.849 191.107 143.316 190.98 142.742 190.98C142.049 190.98 141.429 191.133 140.882 191.44C140.336 191.747 139.902 192.18 139.582 192.74C139.262 193.287 139.102 193.94 139.102 194.7C139.102 195.46 139.262 196.12 139.582 196.68C139.902 197.24 140.336 197.673 140.882 197.98C141.429 198.287 142.049 198.44 142.742 198.44C143.316 198.44 143.849 198.32 144.342 198.08C144.849 197.827 145.276 197.44 145.622 196.92L147.082 197.84C146.669 198.573 146.082 199.14 145.322 199.54C144.576 199.927 143.722 200.12 142.762 200.12ZM154.132 200.12C152.998 200.12 151.998 199.887 151.132 199.42C150.278 198.953 149.612 198.313 149.132 197.5C148.665 196.687 148.432 195.753 148.432 194.7C148.432 193.647 148.658 192.713 149.112 191.9C149.578 191.087 150.212 190.453 151.012 190C151.825 189.533 152.738 189.3 153.752 189.3C154.778 189.3 155.685 189.527 156.472 189.98C157.258 190.433 157.872 191.073 158.312 191.9C158.765 192.713 158.992 193.667 158.992 194.76C158.992 194.84 158.985 194.933 158.972 195.04C158.972 195.147 158.965 195.247 158.952 195.34H149.932V193.96H157.952L157.172 194.44C157.185 193.76 157.045 193.153 156.752 192.62C156.458 192.087 156.052 191.673 155.532 191.38C155.025 191.073 154.432 190.92 153.752 190.92C153.085 190.92 152.492 191.073 151.972 191.38C151.452 191.673 151.045 192.093 150.752 192.64C150.458 193.173 150.312 193.787 150.312 194.48V194.8C150.312 195.507 150.472 196.14 150.792 196.7C151.125 197.247 151.585 197.673 152.172 197.98C152.758 198.287 153.432 198.44 154.192 198.44C154.818 198.44 155.385 198.333 155.892 198.12C156.412 197.907 156.865 197.587 157.252 197.16L158.312 198.4C157.832 198.96 157.232 199.387 156.512 199.68C155.805 199.973 155.012 200.12 154.132 200.12Z" fill="black"/>
<path d="M37.6546 232.16C36.5879 232.16 35.5679 232 34.5946 231.68C33.6213 231.347 32.8546 230.92 32.2946 230.4L33.0346 228.84C33.5679 229.307 34.2479 229.693 35.0746 230C35.9013 230.307 36.7613 230.46 37.6546 230.46C38.4679 230.46 39.1279 230.367 39.6346 230.18C40.1413 229.993 40.5146 229.74 40.7546 229.42C40.9946 229.087 41.1146 228.713 41.1146 228.3C41.1146 227.82 40.9546 227.433 40.6346 227.14C40.3279 226.847 39.9213 226.613 39.4146 226.44C38.9213 226.253 38.3746 226.093 37.7746 225.96C37.1746 225.827 36.5679 225.673 35.9546 225.5C35.3546 225.313 34.8013 225.08 34.2946 224.8C33.8013 224.52 33.4013 224.147 33.0946 223.68C32.7879 223.2 32.6346 222.587 32.6346 221.84C32.6346 221.12 32.8213 220.46 33.1946 219.86C33.5813 219.247 34.1679 218.76 34.9546 218.4C35.7546 218.027 36.7679 217.84 37.9946 217.84C38.8079 217.84 39.6146 217.947 40.4146 218.16C41.2146 218.373 41.9079 218.68 42.4946 219.08L41.8346 220.68C41.2346 220.28 40.6013 219.993 39.9346 219.82C39.2679 219.633 38.6213 219.54 37.9946 219.54C37.2079 219.54 36.5613 219.64 36.0546 219.84C35.5479 220.04 35.1746 220.307 34.9346 220.64C34.7079 220.973 34.5946 221.347 34.5946 221.76C34.5946 222.253 34.7479 222.647 35.0546 222.94C35.3746 223.233 35.7813 223.467 36.2746 223.64C36.7813 223.813 37.3346 223.973 37.9346 224.12C38.5346 224.253 39.1346 224.407 39.7346 224.58C40.3479 224.753 40.9013 224.98 41.3946 225.26C41.9013 225.54 42.3079 225.913 42.6146 226.38C42.9213 226.847 43.0746 227.447 43.0746 228.18C43.0746 228.887 42.8813 229.547 42.4946 230.16C42.1079 230.76 41.5079 231.247 40.6946 231.62C39.8946 231.98 38.8813 232.16 37.6546 232.16ZM52.2965 232V229.76L52.1965 229.34V225.52C52.1965 224.707 51.9565 224.08 51.4765 223.64C51.0098 223.187 50.3032 222.96 49.3565 222.96C48.7298 222.96 48.1165 223.067 47.5165 223.28C46.9165 223.48 46.4098 223.753 45.9965 224.1L45.1965 222.66C45.7432 222.22 46.3965 221.887 47.1565 221.66C47.9298 221.42 48.7365 221.3 49.5765 221.3C51.0298 221.3 52.1498 221.653 52.9365 222.36C53.7232 223.067 54.1165 224.147 54.1165 225.6V232H52.2965ZM48.8165 232.12C48.0298 232.12 47.3365 231.987 46.7365 231.72C46.1498 231.453 45.6965 231.087 45.3765 230.62C45.0565 230.14 44.8965 229.6 44.8965 229C44.8965 228.427 45.0298 227.907 45.2965 227.44C45.5765 226.973 46.0232 226.6 46.6365 226.32C47.2632 226.04 48.1032 225.9 49.1565 225.9H52.5165V227.28H49.2365C48.2765 227.28 47.6298 227.44 47.2965 227.76C46.9632 228.08 46.7965 228.467 46.7965 228.92C46.7965 229.44 47.0032 229.86 47.4165 230.18C47.8298 230.487 48.4032 230.64 49.1365 230.64C49.8565 230.64 50.4832 230.48 51.0165 230.16C51.5632 229.84 51.9565 229.373 52.1965 228.76L52.5765 230.08C52.3232 230.707 51.8765 231.207 51.2365 231.58C50.5965 231.94 49.7898 232.12 48.8165 232.12ZM57.6696 232V217.16H59.5896V232H57.6696ZM69.8355 232V229.76L69.7355 229.34V225.52C69.7355 224.707 69.4955 224.08 69.0155 223.64C68.5489 223.187 67.8422 222.96 66.8955 222.96C66.2689 222.96 65.6555 223.067 65.0555 223.28C64.4555 223.48 63.9489 223.753 63.5355 224.1L62.7355 222.66C63.2822 222.22 63.9355 221.887 64.6955 221.66C65.4689 221.42 66.2755 221.3 67.1155 221.3C68.5689 221.3 69.6889 221.653 70.4755 222.36C71.2622 223.067 71.6555 224.147 71.6555 225.6V232H69.8355ZM66.3555 232.12C65.5689 232.12 64.8755 231.987 64.2755 231.72C63.6889 231.453 63.2355 231.087 62.9155 230.62C62.5955 230.14 62.4355 229.6 62.4355 229C62.4355 228.427 62.5689 227.907 62.8355 227.44C63.1155 226.973 63.5622 226.6 64.1755 226.32C64.8022 226.04 65.6422 225.9 66.6955 225.9H70.0555V227.28H66.7755C65.8155 227.28 65.1689 227.44 64.8355 227.76C64.5022 228.08 64.3355 228.467 64.3355 228.92C64.3355 229.44 64.5422 229.86 64.9555 230.18C65.3689 230.487 65.9422 230.64 66.6755 230.64C67.3955 230.64 68.0222 230.48 68.5555 230.16C69.1022 229.84 69.4955 229.373 69.7355 228.76L70.1155 230.08C69.8622 230.707 69.4155 231.207 68.7755 231.58C68.1355 231.94 67.3289 232.12 66.3555 232.12ZM65.7555 219.86L68.4755 217.26H70.9155L67.5555 219.86H65.7555ZM75.2087 232V221.4H77.0487V224.28L76.8687 223.56C77.162 222.827 77.6553 222.267 78.3487 221.88C79.042 221.493 79.8953 221.3 80.9087 221.3V223.16C80.8287 223.147 80.7487 223.14 80.6687 223.14C80.602 223.14 80.5353 223.14 80.4687 223.14C79.442 223.14 78.6287 223.447 78.0287 224.06C77.4287 224.673 77.1287 225.56 77.1287 226.72V232H75.2087ZM83.2751 232V221.4H85.1951V232H83.2751ZM84.2351 219.36C83.8617 219.36 83.5484 219.24 83.2951 219C83.0551 218.76 82.9351 218.467 82.9351 218.12C82.9351 217.76 83.0551 217.46 83.2951 217.22C83.5484 216.98 83.8617 216.86 84.2351 216.86C84.6084 216.86 84.9151 216.98 85.1551 217.22C85.4084 217.447 85.5351 217.733 85.5351 218.08C85.5351 218.44 85.4151 218.747 85.1751 219C84.9351 219.24 84.6217 219.36 84.2351 219.36ZM93.401 232.12C92.3343 232.12 91.3877 231.887 90.561 231.42C89.7343 230.953 89.081 230.313 88.601 229.5C88.121 228.673 87.881 227.74 87.881 226.7C87.881 225.647 88.121 224.713 88.601 223.9C89.081 223.087 89.7343 222.453 90.561 222C91.3877 221.533 92.3343 221.3 93.401 221.3C94.4543 221.3 95.3943 221.533 96.221 222C97.061 222.453 97.7143 223.087 98.181 223.9C98.661 224.7 98.901 225.633 98.901 226.7C98.901 227.753 98.661 228.687 98.181 229.5C97.7143 230.313 97.061 230.953 96.221 231.42C95.3943 231.887 94.4543 232.12 93.401 232.12ZM93.401 230.44C94.081 230.44 94.6877 230.287 95.221 229.98C95.7677 229.673 96.1943 229.24 96.501 228.68C96.8077 228.107 96.961 227.447 96.961 226.7C96.961 225.94 96.8077 225.287 96.501 224.74C96.1943 224.18 95.7677 223.747 95.221 223.44C94.6877 223.133 94.081 222.98 93.401 222.98C92.721 222.98 92.1143 223.133 91.581 223.44C91.0477 223.747 90.621 224.18 90.301 224.74C89.981 225.287 89.821 225.94 89.821 226.7C89.821 227.447 89.981 228.107 90.301 228.68C90.621 229.24 91.0477 229.673 91.581 229.98C92.1143 230.287 92.721 230.44 93.401 230.44ZM102.016 224.04C101.643 224.04 101.323 223.913 101.056 223.66C100.79 223.393 100.656 223.06 100.656 222.66C100.656 222.26 100.79 221.933 101.056 221.68C101.323 221.427 101.643 221.3 102.016 221.3C102.376 221.3 102.683 221.427 102.936 221.68C103.203 221.933 103.336 222.26 103.336 222.66C103.336 223.06 103.203 223.393 102.936 223.66C102.683 223.913 102.376 224.04 102.016 224.04ZM102.016 232.12C101.643 232.12 101.323 231.993 101.056 231.74C100.79 231.473 100.656 231.14 100.656 230.74C100.656 230.34 100.79 230.013 101.056 229.76C101.323 229.507 101.643 229.38 102.016 229.38C102.376 229.38 102.683 229.507 102.936 229.76C103.203 230.013 103.336 230.34 103.336 230.74C103.336 231.14 103.203 231.473 102.936 231.74C102.683 231.993 102.376 232.12 102.016 232.12ZM109.619 232L115.959 218H117.939L124.299 232H122.199L116.539 219.12H117.339L111.679 232H109.619ZM112.319 228.5L112.859 226.9H120.739L121.319 228.5H112.319ZM129.649 232.12C128.583 232.12 127.756 231.833 127.169 231.26C126.583 230.687 126.289 229.867 126.289 228.8V219.08H128.209V228.72C128.209 229.293 128.349 229.733 128.629 230.04C128.923 230.347 129.336 230.5 129.869 230.5C130.469 230.5 130.969 230.333 131.369 230L131.969 231.38C131.676 231.633 131.323 231.82 130.909 231.94C130.509 232.06 130.089 232.12 129.649 232.12ZM124.489 222.98V221.4H131.249V222.98H124.489ZM138.659 232.12C137.526 232.12 136.526 231.887 135.659 231.42C134.806 230.953 134.139 230.313 133.659 229.5C133.192 228.687 132.959 227.753 132.959 226.7C132.959 225.647 133.186 224.713 133.639 223.9C134.106 223.087 134.739 222.453 135.539 222C136.352 221.533 137.266 221.3 138.279 221.3C139.306 221.3 140.212 221.527 140.999 221.98C141.786 222.433 142.399 223.073 142.839 223.9C143.292 224.713 143.519 225.667 143.519 226.76C143.519 226.84 143.512 226.933 143.499 227.04C143.499 227.147 143.492 227.247 143.479 227.34H134.459V225.96H142.479L141.699 226.44C141.712 225.76 141.572 225.153 141.279 224.62C140.986 224.087 140.579 223.673 140.059 223.38C139.552 223.073 138.959 222.92 138.279 222.92C137.612 222.92 137.019 223.073 136.499 223.38C135.979 223.673 135.572 224.093 135.279 224.64C134.986 225.173 134.839 225.787 134.839 226.48V226.8C134.839 227.507 134.999 228.14 135.319 228.7C135.652 229.247 136.112 229.673 136.699 229.98C137.286 230.287 137.959 230.44 138.719 230.44C139.346 230.44 139.912 230.333 140.419 230.12C140.939 229.907 141.392 229.587 141.779 229.16L142.839 230.4C142.359 230.96 141.759 231.387 141.039 231.68C140.332 231.973 139.539 232.12 138.659 232.12ZM136.759 219.86L139.479 217.26H141.919L138.559 219.86H136.759ZM151.836 232V218H157.296C158.523 218 159.57 218.193 160.436 218.58C161.303 218.967 161.97 219.527 162.436 220.26C162.903 220.993 163.136 221.867 163.136 222.88C163.136 223.893 162.903 224.767 162.436 225.5C161.97 226.22 161.303 226.773 160.436 227.16C159.57 227.547 158.523 227.74 157.296 227.74H152.936L153.836 226.82V232H151.836ZM161.196 232L157.636 226.92H159.776L163.376 232H161.196ZM153.836 227.02L152.936 226.04H157.236C158.516 226.04 159.483 225.767 160.136 225.22C160.803 224.66 161.136 223.88 161.136 222.88C161.136 221.88 160.803 221.107 160.136 220.56C159.483 220.013 158.516 219.74 157.236 219.74H152.936L153.836 218.74V227.02ZM169.948 234.4V215.6H171.228V234.4H169.948ZM170.448 232.16C169.381 232.16 168.361 232 167.388 231.68C166.414 231.347 165.648 230.92 165.088 230.4L165.828 228.84C166.361 229.307 167.041 229.693 167.868 230C168.694 230.307 169.554 230.46 170.448 230.46C171.261 230.46 171.921 230.367 172.428 230.18C172.934 229.993 173.308 229.74 173.548 229.42C173.788 229.087 173.908 228.713 173.908 228.3C173.908 227.82 173.748 227.433 173.428 227.14C173.121 226.847 172.714 226.613 172.208 226.44C171.714 226.253 171.168 226.093 170.568 225.96C169.968 225.827 169.361 225.673 168.748 225.5C168.148 225.313 167.594 225.08 167.088 224.8C166.594 224.52 166.194 224.147 165.888 223.68C165.581 223.2 165.428 222.587 165.428 221.84C165.428 221.12 165.614 220.46 165.988 219.86C166.374 219.247 166.961 218.76 167.748 218.4C168.548 218.027 169.561 217.84 170.788 217.84C171.601 217.84 172.408 217.947 173.208 218.16C174.008 218.373 174.701 218.68 175.288 219.08L174.628 220.68C174.028 220.28 173.394 219.993 172.728 219.82C172.061 219.633 171.414 219.54 170.788 219.54C170.001 219.54 169.354 219.64 168.848 219.84C168.341 220.04 167.968 220.307 167.728 220.64C167.501 220.973 167.388 221.347 167.388 221.76C167.388 222.253 167.541 222.647 167.848 222.94C168.168 223.233 168.574 223.467 169.068 223.64C169.574 223.813 170.128 223.973 170.728 224.12C171.328 224.253 171.928 224.407 172.528 224.58C173.141 224.753 173.694 224.98 174.188 225.26C174.694 225.54 175.101 225.913 175.408 226.38C175.714 226.847 175.868 227.447 175.868 228.18C175.868 228.887 175.674 229.547 175.288 230.16C174.901 230.76 174.301 231.247 173.488 231.62C172.688 231.98 171.674 232.16 170.448 232.16ZM187.301 232.16C186.314 232.16 185.354 232.007 184.421 231.7C183.501 231.393 182.747 230.98 182.161 230.46L183.081 228.88C183.547 229.32 184.154 229.68 184.901 229.96C185.647 230.24 186.447 230.38 187.301 230.38C188.341 230.38 189.147 230.16 189.721 229.72C190.307 229.267 190.601 228.66 190.601 227.9C190.601 227.167 190.321 226.58 189.761 226.14C189.214 225.687 188.341 225.46 187.141 225.46H186.021V224.06L190.181 218.94L190.461 219.74H182.801V218H192.041V219.36L187.901 224.46L186.861 223.84H187.521C189.214 223.84 190.481 224.22 191.321 224.98C192.174 225.74 192.601 226.707 192.601 227.88C192.601 228.667 192.407 229.387 192.021 230.04C191.634 230.693 191.047 231.213 190.261 231.6C189.487 231.973 188.501 232.16 187.301 232.16ZM200.186 232.16C199.093 232.16 198.113 231.88 197.246 231.32C196.393 230.76 195.713 229.947 195.206 228.88C194.713 227.813 194.466 226.52 194.466 225C194.466 223.48 194.713 222.187 195.206 221.12C195.713 220.053 196.393 219.24 197.246 218.68C198.113 218.12 199.093 217.84 200.186 217.84C201.266 217.84 202.239 218.12 203.106 218.68C203.973 219.24 204.653 220.053 205.146 221.12C205.639 222.187 205.886 223.48 205.886 225C205.886 226.52 205.639 227.813 205.146 228.88C204.653 229.947 203.973 230.76 203.106 231.32C202.239 231.88 201.266 232.16 200.186 232.16ZM200.186 230.38C200.919 230.38 201.559 230.18 202.106 229.78C202.666 229.38 203.099 228.78 203.406 227.98C203.726 227.18 203.886 226.187 203.886 225C203.886 223.813 203.726 222.82 203.406 222.02C203.099 221.22 202.666 220.62 202.106 220.22C201.559 219.82 200.919 219.62 200.186 219.62C199.453 219.62 198.806 219.82 198.246 220.22C197.686 220.62 197.246 221.22 196.926 222.02C196.619 222.82 196.466 223.813 196.466 225C196.466 226.187 196.619 227.18 196.926 227.98C197.246 228.78 197.686 229.38 198.246 229.78C198.806 230.18 199.453 230.38 200.186 230.38ZM213.526 232.16C212.432 232.16 211.452 231.88 210.586 231.32C209.732 230.76 209.052 229.947 208.546 228.88C208.052 227.813 207.806 226.52 207.806 225C207.806 223.48 208.052 222.187 208.546 221.12C209.052 220.053 209.732 219.24 210.586 218.68C211.452 218.12 212.432 217.84 213.526 217.84C214.606 217.84 215.579 218.12 216.446 218.68C217.312 219.24 217.992 220.053 218.486 221.12C218.979 222.187 219.226 223.48 219.226 225C219.226 226.52 218.979 227.813 218.486 228.88C217.992 229.947 217.312 230.76 216.446 231.32C215.579 231.88 214.606 232.16 213.526 232.16ZM213.526 230.38C214.259 230.38 214.899 230.18 215.446 229.78C216.006 229.38 216.439 228.78 216.746 227.98C217.066 227.18 217.226 226.187 217.226 225C217.226 223.813 217.066 222.82 216.746 222.02C216.439 221.22 216.006 220.62 215.446 220.22C214.899 219.82 214.259 219.62 213.526 219.62C212.792 219.62 212.146 219.82 211.586 220.22C211.026 220.62 210.586 221.22 210.266 222.02C209.959 222.82 209.806 223.813 209.806 225C209.806 226.187 209.959 227.18 210.266 227.98C210.586 228.78 211.026 229.38 211.586 229.78C212.146 230.18 212.792 230.38 213.526 230.38ZM226.866 232.16C225.772 232.16 224.792 231.88 223.926 231.32C223.072 230.76 222.392 229.947 221.886 228.88C221.392 227.813 221.146 226.52 221.146 225C221.146 223.48 221.392 222.187 221.886 221.12C222.392 220.053 223.072 219.24 223.926 218.68C224.792 218.12 225.772 217.84 226.866 217.84C227.946 217.84 228.919 218.12 229.786 218.68C230.652 219.24 231.332 220.053 231.826 221.12C232.319 222.187 232.566 223.48 232.566 225C232.566 226.52 232.319 227.813 231.826 228.88C231.332 229.947 230.652 230.76 229.786 231.32C228.919 231.88 227.946 232.16 226.866 232.16ZM226.866 230.38C227.599 230.38 228.239 230.18 228.786 229.78C229.346 229.38 229.779 228.78 230.086 227.98C230.406 227.18 230.566 226.187 230.566 225C230.566 223.813 230.406 222.82 230.086 222.02C229.779 221.22 229.346 220.62 228.786 220.22C228.239 219.82 227.599 219.62 226.866 219.62C226.132 219.62 225.486 219.82 224.926 220.22C224.366 220.62 223.926 221.22 223.606 222.02C223.299 222.82 223.146 223.813 223.146 225C223.146 226.187 223.299 227.18 223.606 227.98C223.926 228.78 224.366 229.38 224.926 229.78C225.486 230.18 226.132 230.38 226.866 230.38Z" fill="black"/>
<g clip-path="url(#clip0_111_1804)">
<path d="M485.298 91.7531H496.045V60.4889H485.298V91.7531ZM499.764 39.2142H492.522V46.4378H499.764V39.2142ZM459.144 42.7282H448.756V51.795H458.403C464.524 51.795 468.047 54.7543 468.047 60.3048C468.047 65.8554 464.524 68.9988 458.403 68.9988H448.756V51.9884H438.01V91.7531H448.756V78.0633H458.959C471.386 78.0633 478.621 71.4035 478.621 59.9343C478.621 49.2038 471.573 42.7282 459.144 42.7282ZM507 32.0093H485.298V53.6428H507V32.0093ZM503.474 49.9518H489.008V35.5139H503.474V49.9518ZM566.54 42.7282H556.709V51.795H565.982C572.103 51.795 575.628 54.7543 575.628 60.3048C575.628 65.8554 572.103 68.9988 565.982 68.9988H556.709V51.9884H545.962V91.7531H556.709V78.0633H566.54C578.967 78.0633 586.2 71.4035 586.2 59.9343C586.2 49.2038 578.967 42.7282 566.54 42.7282ZM656.87 54.1997L647.595 77.5017L638.32 54.1997H627.192L642.03 91.7531L636.28 105.998H647.595L667.998 54.1997H656.87ZM608.645 54.0133C602.152 54.0133 597.143 55.493 591.578 58.2682L594.919 65.6689C598.814 63.4483 602.708 62.3391 606.231 62.3391C611.425 62.3391 614.023 64.5598 614.023 68.6306V69.3716H603.629C594.354 69.3716 589.347 73.6266 589.347 80.6568C589.347 87.5005 594.169 92.3077 602.33 92.3077C607.523 92.3077 611.233 90.4599 614.2 87.3141V91.3826H624.774V66.9645C624.422 59.0092 618.66 54.0133 608.645 54.0133ZM614.953 79.1794C613.84 82.3228 610.687 84.914 606.234 84.914C602.526 84.914 600.299 83.0638 600.299 80.1045C600.299 77.1451 602.339 75.8496 606.42 75.8496H614.953V79.1794ZM523.506 83.6138C518.312 83.6138 514.605 79.5429 514.605 73.4378C514.605 67.5191 518.312 63.4483 523.506 63.4483C527.216 63.4483 529.998 64.9279 532.04 67.5191L539.283 62.3391C535.944 57.3432 530.195 54.3838 522.959 54.3838C511.644 54.1997 503.855 61.9686 503.855 73.4378C503.855 84.907 511.644 92.4941 522.959 92.4941C530.751 92.4941 536.51 89.3484 539.654 84.1684L532.234 79.1747C530.37 82.1341 527.403 83.6138 523.506 83.6138Z" fill="#21C25E"/>
</g>
<defs>
<clipPath id="clip0_111_1804">
<rect width="230" height="74" fill="white" transform="translate(438 32)"/>
</clipPath>
</defs>
</svg>
