<svg width="563" height="279" viewBox="0 0 563 279" fill="none" xmlns="http://www.w3.org/2000/svg">
<path d="M2.00239 243.231C4.85133 244.232 7.91016 244.483 10.8842 243.959C13.8582 243.435 16.6472 242.154 18.9825 240.24C24.9298 235.248 26.7948 227.026 28.3116 219.411L32.7992 196.888L23.4041 203.357C16.6472 208.009 9.73855 212.811 5.06059 219.549C0.382629 226.288 -1.65823 235.487 2.09927 242.778" fill="#73BA97"/>
<path d="M3.45305 272.068C2.27054 263.453 1.05387 254.726 1.88533 246.019C2.62217 238.285 4.98158 230.733 9.78498 224.539C12.3346 221.257 15.437 218.446 18.9528 216.231C19.8694 215.652 20.7131 217.105 19.8005 217.681C13.7171 221.525 9.01178 227.202 6.36287 233.893C3.43738 241.334 2.96763 249.445 3.47154 257.349C3.77613 262.129 4.42337 266.878 5.07341 271.621C5.12474 271.835 5.0927 272.061 4.98377 272.253C4.87484 272.445 4.69713 272.588 4.48662 272.654C4.27187 272.711 4.04297 272.682 3.84958 272.572C3.65619 272.463 3.51393 272.281 3.45363 272.067L3.45305 272.068Z" fill="#199558"/>
<path d="M3.45305 272.068C2.27054 263.453 1.05387 254.726 1.88533 246.019C2.62217 238.285 4.98158 230.733 9.78498 224.539C12.3346 221.257 15.437 218.446 18.9528 216.231C19.8694 215.652 20.7131 217.105 19.8005 217.681C13.7171 221.525 9.01178 227.202 6.36287 233.893C3.43738 241.334 2.96763 249.445 3.47154 257.349C3.77613 262.129 4.42337 266.878 5.07341 271.621C5.12474 271.835 5.0927 272.061 4.98377 272.253C4.87484 272.445 4.69713 272.588 4.48662 272.654C4.27187 272.711 4.04297 272.682 3.84958 272.572C3.65619 272.463 3.51393 272.281 3.45363 272.067L3.45305 272.068Z" fill="black" fill-opacity="0.2"/>
<path d="M3.45305 272.068C2.27054 263.453 1.05387 254.726 1.88533 246.019C2.62217 238.285 4.98158 230.733 9.78498 224.539C12.3346 221.257 15.437 218.446 18.9528 216.231C19.8694 215.652 20.7131 217.105 19.8005 217.681C13.7171 221.525 9.01178 227.202 6.36287 233.893C3.43738 241.334 2.96763 249.445 3.47154 257.349C3.77613 262.129 4.42337 266.878 5.07341 271.621C5.12474 271.835 5.0927 272.061 4.98377 272.253C4.87484 272.445 4.69713 272.588 4.48662 272.654C4.27187 272.711 4.04297 272.682 3.84958 272.572C3.65619 272.463 3.51393 272.281 3.45363 272.067L3.45305 272.068Z" fill="black" fill-opacity="0.2"/>
<path d="M3.45305 272.068C2.27054 263.453 1.05387 254.726 1.88533 246.019C2.62217 238.285 4.98158 230.733 9.78498 224.539C12.3346 221.257 15.437 218.446 18.9528 216.231C19.8694 215.652 20.7131 217.105 19.8005 217.681C13.7171 221.525 9.01178 227.202 6.36287 233.893C3.43738 241.334 2.96763 249.445 3.47154 257.349C3.77613 262.129 4.42337 266.878 5.07341 271.621C5.12474 271.835 5.0927 272.061 4.98377 272.253C4.87484 272.445 4.69713 272.588 4.48662 272.654C4.27187 272.711 4.04297 272.682 3.84958 272.572C3.65619 272.463 3.51393 272.281 3.45363 272.067L3.45305 272.068Z" fill="black" fill-opacity="0.2"/>
<path d="M11.9647 258.244C13.1864 260.102 14.8659 261.613 16.8413 262.633C18.8168 263.653 21.0216 264.147 23.2434 264.067C28.9544 263.796 33.7136 259.812 37.9974 256.028L50.6708 244.838L42.2834 244.437C36.2516 244.148 30.0641 243.877 24.319 245.739C18.5739 247.602 13.2755 252.076 12.2251 258.023" fill="#73BA97"/>
<path d="M0.110479 277.02C5.80355 266.947 12.4065 255.752 24.2058 252.174C27.4863 251.182 30.9262 250.827 34.34 251.127C35.4162 251.22 35.1474 252.879 34.0735 252.786C28.3509 252.311 22.6393 253.822 17.9002 257.065C13.4452 260.297 9.6683 264.373 6.78393 269.061C4.94292 271.864 3.29407 274.786 1.64515 277.705C1.11828 278.637 -0.422551 277.964 0.110479 277.02Z" fill="#199558"/>
<path d="M0.110479 277.02C5.80355 266.947 12.4065 255.752 24.2058 252.174C27.4863 251.182 30.9262 250.827 34.34 251.127C35.4162 251.22 35.1474 252.879 34.0735 252.786C28.3509 252.311 22.6393 253.822 17.9002 257.065C13.4452 260.297 9.6683 264.373 6.78393 269.061C4.94292 271.864 3.29407 274.786 1.64515 277.705C1.11828 278.637 -0.422551 277.964 0.110479 277.02Z" fill="black" fill-opacity="0.2"/>
<path d="M0.110479 277.02C5.80355 266.947 12.4065 255.752 24.2058 252.174C27.4863 251.182 30.9262 250.827 34.34 251.127C35.4162 251.22 35.1474 252.879 34.0735 252.786C28.3509 252.311 22.6393 253.822 17.9002 257.065C13.4452 260.297 9.6683 264.373 6.78393 269.061C4.94292 271.864 3.29407 274.786 1.64515 277.705C1.11828 278.637 -0.422551 277.964 0.110479 277.02Z" fill="black" fill-opacity="0.2"/>
<path d="M0.110479 277.02C5.80355 266.947 12.4065 255.752 24.2058 252.174C27.4863 251.182 30.9262 250.827 34.34 251.127C35.4162 251.22 35.1474 252.879 34.0735 252.786C28.3509 252.311 22.6393 253.822 17.9002 257.065C13.4452 260.297 9.6683 264.373 6.78393 269.061C4.94292 271.864 3.29407 274.786 1.64515 277.705C1.11828 278.637 -0.422551 277.964 0.110479 277.02Z" fill="black" fill-opacity="0.2"/>
<path d="M56.285 138.803C55.4583 138.443 54.7928 137.792 54.4152 136.973C54.0377 136.154 53.9744 135.225 54.2375 134.362C54.2801 134.23 54.3069 134.093 54.3174 133.955C54.3415 133.559 54.2376 133.167 54.0212 132.835C53.8048 132.504 53.4874 132.251 53.1159 132.114C52.7445 131.977 52.3388 131.963 51.959 132.075C51.5791 132.186 51.2453 132.417 51.007 132.733C50.925 132.846 50.8565 132.967 50.803 133.095C50.443 133.922 49.7915 134.587 48.9726 134.965C48.1537 135.342 47.2246 135.406 46.3621 135.143C46.2298 135.1 46.093 135.073 45.9545 135.063C45.5593 135.039 45.1669 135.143 44.8354 135.359C44.5039 135.575 44.2509 135.893 44.1139 136.264C43.9769 136.636 43.9631 137.041 44.0747 137.421C44.1863 137.801 44.4172 138.135 44.7333 138.373C44.8455 138.455 44.9669 138.524 45.0951 138.577C45.9219 138.937 46.5873 139.589 46.9649 140.408C47.3424 141.226 47.4057 142.156 47.1426 143.018C47.1 143.15 47.0732 143.287 47.0627 143.426C47.0386 143.821 47.1425 144.213 47.3589 144.545C47.5753 144.876 47.8927 145.129 48.2642 145.266C48.6356 145.403 49.0413 145.417 49.4211 145.305C49.801 145.194 50.1348 144.963 50.3731 144.647C50.4551 144.535 50.5236 144.413 50.5771 144.285C50.9371 143.458 51.5886 142.793 52.4075 142.415C53.2264 142.038 54.1555 141.974 55.018 142.237C55.1503 142.28 55.2871 142.307 55.4256 142.317C55.8208 142.341 56.2132 142.238 56.5447 142.021C56.8762 141.805 57.1293 141.487 57.2663 141.116C57.4033 140.745 57.417 140.339 57.3055 139.959C57.1939 139.579 56.9629 139.245 56.6468 139.007C56.5346 138.925 56.4132 138.857 56.285 138.803Z" fill="#73BA97"/>
<path d="M175.654 144C178.968 144 181.654 141.314 181.654 138C181.654 134.686 178.968 132 175.654 132C172.34 132 169.654 134.686 169.654 138C169.654 141.314 172.34 144 175.654 144Z" fill="#199558"/>
<path d="M175.654 144C178.968 144 181.654 141.314 181.654 138C181.654 134.686 178.968 132 175.654 132C172.34 132 169.654 134.686 169.654 138C169.654 141.314 172.34 144 175.654 144Z" fill="black" fill-opacity="0.2"/>
<path d="M175.654 144C178.968 144 181.654 141.314 181.654 138C181.654 134.686 178.968 132 175.654 132C172.34 132 169.654 134.686 169.654 138C169.654 141.314 172.34 144 175.654 144Z" fill="black" fill-opacity="0.2"/>
<path d="M175.654 144C178.968 144 181.654 141.314 181.654 138C181.654 134.686 178.968 132 175.654 132C172.34 132 169.654 134.686 169.654 138C169.654 141.314 172.34 144 175.654 144Z" fill="black" fill-opacity="0.2"/>
<path d="M136.311 259.578C160.096 259.578 179.378 240.297 179.378 216.511C179.378 192.726 160.096 173.444 136.311 173.444C112.525 173.444 93.2433 192.726 93.2433 216.511C93.2433 240.297 112.525 259.578 136.311 259.578Z" fill="#2F2E41"/>
<path d="M129.769 250.311H116.685V273.753H129.769V250.311Z" fill="#2F2E41"/>
<path d="M155.936 250.311H142.853V273.753H155.936V250.311Z" fill="#2F2E41"/>
<path d="M127.588 278.114C133.61 278.114 138.491 276.283 138.491 274.025C138.491 271.767 133.61 269.937 127.588 269.937C121.567 269.937 116.685 271.767 116.685 274.025C116.685 276.283 121.567 278.114 127.588 278.114Z" fill="#2F2E41"/>
<path d="M153.756 277.569C159.777 277.569 164.659 275.738 164.659 273.48C164.659 271.222 159.777 269.391 153.756 269.391C147.734 269.391 142.853 271.222 142.853 273.48C142.853 275.738 147.734 277.569 153.756 277.569Z" fill="#2F2E41"/>
<path d="M182.72 197.692C192.047 188.357 197.233 178.417 194.302 175.489C191.372 172.561 181.436 177.754 172.109 187.088C162.782 196.423 157.596 206.363 160.526 209.291C163.457 212.219 173.393 207.026 182.72 197.692Z" fill="#2F2E41"/>
<path d="M101.597 212.291C104.527 209.363 99.3416 199.423 90.0146 190.089C80.6876 180.754 70.7511 175.561 67.8209 178.489C64.8906 181.417 70.0762 191.358 79.4031 200.692C88.7301 210.026 98.6666 215.219 101.597 212.291Z" fill="#2F2E41"/>
<path d="M134.499 225.127C142.628 225.127 149.218 218.537 149.218 210.408C149.218 202.279 142.628 195.689 134.499 195.689C126.369 195.689 119.779 202.279 119.779 210.408C119.779 218.537 126.369 225.127 134.499 225.127Z" fill="white"/>
<path d="M134.499 215.314C137.208 215.314 139.405 213.118 139.405 210.408C139.405 207.698 137.208 205.502 134.499 205.502C131.789 205.502 129.592 207.698 129.592 210.408C129.592 213.118 131.789 215.314 134.499 215.314Z" fill="#3F3D56"/>
<path d="M146.183 237.631C146.638 240.128 146.082 242.704 144.637 244.792C143.192 246.88 140.978 248.308 138.48 248.763C135.982 249.217 133.406 248.661 131.318 247.217C129.231 245.772 127.803 243.557 127.348 241.059L127.344 241.041C126.403 235.839 130.425 233.998 135.627 233.056C140.829 232.114 145.241 232.428 146.183 237.631Z" fill="white"/>
<path d="M178.541 261.711C177.571 261.712 176.642 262.098 175.956 262.783C175.271 263.469 174.885 264.398 174.884 265.368V273.005C174.885 273.974 175.271 274.904 175.956 275.589C176.642 276.275 177.571 276.66 178.541 276.661H237.37C238.34 276.66 239.269 276.275 239.955 275.589C240.64 274.904 241.026 273.974 241.027 273.005V265.368C241.026 264.398 240.64 263.469 239.955 262.783C239.269 262.098 238.34 261.712 237.37 261.711H178.541Z" fill="#E5E5E5"/>
<path d="M212.373 256.625C212.009 256.415 211.576 256.358 211.17 256.467C210.763 256.576 210.417 256.841 210.207 257.205L208.021 260.992L205.878 256.758C205.688 256.383 205.357 256.098 204.958 255.967C204.558 255.836 204.123 255.869 203.748 256.059C203.372 256.249 203.088 256.58 202.957 256.98C202.826 257.379 202.859 257.814 203.049 258.19L204.716 261.485H204.105V276.888H212.259V261.485H211.398L212.953 258.791C213.163 258.427 213.22 257.994 213.111 257.588C213.003 257.182 212.737 256.835 212.373 256.625Z" fill="#73BA97"/>
<path d="M135.201 188.263C127.549 188.255 119.942 187.093 112.636 184.816C112.129 184.652 111.686 184.332 111.371 183.901C111.057 183.47 110.886 182.951 110.884 182.418V164.888C110.885 164.225 111.149 163.59 111.617 163.121C112.086 162.652 112.721 162.389 113.384 162.388H157.384C158.047 162.389 158.683 162.652 159.151 163.121C159.62 163.59 159.883 164.225 159.884 164.888V182.408C159.885 182.946 159.712 183.469 159.391 183.901C159.071 184.334 158.62 184.651 158.105 184.807C150.681 187.076 142.964 188.24 135.201 188.263Z" fill="#73BA97"/>
<path opacity="0.2" d="M159.384 164.888V167.818L135.574 176.168C135.129 176.321 134.644 176.314 134.204 176.148L111.384 167.578V164.888C111.386 164.358 111.597 163.85 111.972 163.475C112.346 163.101 112.854 162.889 113.384 162.888H157.384C157.914 162.889 158.422 163.101 158.797 163.475C159.172 163.85 159.383 164.358 159.384 164.888Z" fill="black"/>
<path d="M134.908 172.779C134.608 172.78 134.31 172.726 134.029 172.621L99.9284 159.816C99.4462 159.635 99.0318 159.309 98.7416 158.884C98.4515 158.458 98.2999 157.954 98.3075 157.439C98.3151 156.924 98.4816 156.424 98.7842 156.007C99.0868 155.59 99.5107 155.277 99.998 155.11L132.083 144.133C132.602 143.958 133.163 143.955 133.683 144.127L169.493 156.064C169.988 156.229 170.418 156.544 170.725 156.966C171.031 157.388 171.198 157.895 171.202 158.416C171.206 158.938 171.047 159.447 170.747 159.874C170.447 160.3 170.022 160.622 169.529 160.795L135.735 172.639C135.469 172.732 135.19 172.78 134.908 172.779Z" fill="#73BA97"/>
<path d="M103.885 171.888H102.885V157.388H133.385V158.388H103.885V171.888Z" fill="#3F3D56"/>
<path d="M103.384 174.888C104.489 174.888 105.384 173.992 105.384 172.888C105.384 171.783 104.489 170.888 103.384 170.888C102.28 170.888 101.384 171.783 101.384 172.888C101.384 173.992 102.28 174.888 103.384 174.888Z" fill="#3F3D56"/>
<path d="M393.883 46.8146C387.392 42.7634 381.548 37.7561 376.55 31.9616C376.206 31.5543 375.999 31.0485 375.959 30.5167C375.92 29.9848 376.049 29.454 376.33 29.0003L385.595 14.1187C385.946 13.5565 386.506 13.1564 387.151 13.0062C387.797 12.8561 388.476 12.9681 389.039 13.3178L426.391 36.5737C426.953 36.9247 427.353 37.4844 427.503 38.13C427.653 38.7755 427.541 39.4543 427.192 40.0173L417.931 54.8902C417.647 55.347 417.224 55.7002 416.724 55.8977C416.223 56.0951 415.673 56.1264 415.153 55.9869C407.652 53.9886 400.485 50.8981 393.883 46.8146Z" fill="#DDEFE6"/>
<path opacity="0.2" d="M426.767 39.753L425.219 42.2402L400.593 36.744C400.134 36.6391 399.726 36.3769 399.44 36.0028L384.598 16.6664L386.02 14.3829C386.301 13.9338 386.749 13.6143 387.265 13.4943C387.781 13.3742 388.324 13.4633 388.775 13.7422L426.126 36.9981C426.576 37.2795 426.895 37.7272 427.015 38.2434C427.135 38.7596 427.046 39.3023 426.767 39.753Z" fill="black"/>
<path d="M401.818 33.5155C401.563 33.3571 401.339 33.1541 401.156 32.9163L378.975 4.02245C378.662 3.61389 378.482 3.11847 378.46 2.60387C378.439 2.08928 378.577 1.58063 378.856 1.14748C379.134 0.714339 379.54 0.377845 380.017 0.183951C380.494 -0.00994177 381.02 -0.0517663 381.522 0.0642309L414.561 7.70473C415.094 7.82968 415.571 8.12436 415.922 8.54439L440.012 37.605C440.345 38.0064 440.544 38.5018 440.581 39.0219C440.618 39.542 440.492 40.0607 440.22 40.5054C439.948 40.9501 439.543 41.2986 439.063 41.5021C438.583 41.7056 438.052 41.754 437.543 41.6403L402.594 33.8334C402.319 33.7719 402.057 33.6644 401.818 33.5155Z" fill="#DDEFE6"/>
<path d="M375.953 16.3616L375.104 15.8326L382.768 3.52356L408.66 19.6446L408.131 20.4926L383.088 4.90056L375.953 16.3616Z" fill="#3F3D56"/>
<path d="M375 18.9458C376.105 18.9458 377 18.0504 377 16.9458C377 15.8412 376.105 14.9458 375 14.9458C373.895 14.9458 373 15.8412 373 16.9458C373 18.0504 373.895 18.9458 375 18.9458Z" fill="#3F3D56"/>
<path d="M498.073 142.636C521.859 142.636 541.141 123.354 541.141 99.569C541.141 75.7836 521.859 56.5017 498.073 56.5017C474.288 56.5017 455.006 75.7836 455.006 99.569C455.006 123.354 474.288 142.636 498.073 142.636Z" fill="#2F2E41"/>
<path d="M527.93 121.9L516.766 128.723L528.991 148.725L540.155 141.902L527.93 121.9Z" fill="#2F2E41"/>
<path d="M505.602 135.546L494.438 142.368L506.663 162.37L517.827 155.548L505.602 135.546Z" fill="#2F2E41"/>
<path d="M533.125 151.309C538.264 148.169 541.474 144.061 540.297 142.134C539.119 140.208 533.999 141.191 528.861 144.331C523.723 147.472 520.512 151.579 521.69 153.506C522.868 155.433 527.987 154.449 533.125 151.309Z" fill="#2F2E41"/>
<path d="M510.513 164.489C515.651 161.349 518.862 157.242 517.685 155.315C516.507 153.388 511.387 154.372 506.249 157.512C501.111 160.652 497.9 164.76 499.078 166.686C500.255 168.613 505.375 167.629 510.513 164.489Z" fill="#2F2E41"/>
<path d="M473.858 92.3489C476.788 89.4209 471.603 79.4804 462.276 70.1463C452.949 60.8121 443.012 55.6189 440.082 58.5469C437.152 61.4749 442.337 71.4154 451.664 80.7495C460.991 90.0837 470.928 95.2769 473.858 92.3489Z" fill="#2F2E41"/>
<path d="M556.302 136.073C559.705 133.71 556.362 123.009 548.836 112.17C541.31 101.331 532.451 94.4599 529.048 96.8225C525.646 99.1852 528.988 109.887 536.514 120.726C544.04 131.564 552.9 138.436 556.302 136.073Z" fill="#2F2E41"/>
<path d="M484.885 102.185C493.015 102.185 499.605 95.595 499.605 87.4658C499.605 79.3366 493.015 72.7466 484.885 72.7466C476.756 72.7466 470.166 79.3366 470.166 87.4658C470.166 95.595 476.756 102.185 484.885 102.185Z" fill="white"/>
<path d="M479.886 87.3722C482.595 87.3722 484.792 85.1755 484.792 82.4658C484.792 79.756 482.595 77.5593 479.886 77.5593C477.176 77.5593 474.979 79.756 474.979 82.4658C474.979 85.1755 477.176 87.3722 479.886 87.3722Z" fill="#3F3D56"/>
<path d="M465.931 112.019C463.14 116.592 466.859 122.778 474.237 125.837C481.616 128.896 489.86 127.668 492.651 123.095L492.661 123.079C495.445 118.503 490.038 115.079 482.657 112.025C475.275 108.971 468.715 107.443 465.931 112.019Z" fill="white"/>
<path d="M483.623 45.4927C487.468 30.0057 504.443 20.8919 521.537 25.1365C538.632 29.3811 549.372 45.3768 545.526 60.8638C541.681 76.3508 528.922 76.4008 511.828 72.1562C494.734 67.9116 479.777 60.9797 483.623 45.4927Z" fill="#E6E6E6"/>
</svg>
