<svg width="207" height="57" viewBox="0 0 207 57" fill="none" xmlns="http://www.w3.org/2000/svg">
<path d="M55.8932 23.1388V12.1725H58.221V23.1388H55.8932Z" fill="black"/>
<path d="M70.7387 23.1388H67.7801L63.0043 14.8428H62.9367C63.0319 16.308 63.0794 17.3531 63.0794 17.9782V23.1388H60.9994V12.1725H63.9354L68.7037 20.3859H68.7563C68.6812 18.9608 68.6436 17.9532 68.6436 17.3631V12.1725H70.7387L70.7387 23.1388Z" fill="black"/>
<path d="M79.9749 20.0935C79.9749 21.0836 79.617 21.8637 78.9011 22.4337C78.1902 23.0038 77.199 23.2888 75.9275 23.2888C74.7561 23.2888 73.7198 23.0688 72.8187 22.6287V20.4685C73.5596 20.7985 74.1854 21.0311 74.696 21.1661C75.2116 21.3011 75.6822 21.3686 76.1077 21.3686C76.6183 21.3686 77.0088 21.2711 77.2791 21.0761C77.5545 20.881 77.6921 20.591 77.6921 20.206C77.6921 19.9909 77.6321 19.8009 77.5119 19.6359C77.3918 19.4659 77.214 19.3034 76.9788 19.1483C76.7485 18.9933 76.2754 18.7458 75.5595 18.4058C74.8887 18.0907 74.3856 17.7882 74.0502 17.4982C73.7148 17.2081 73.447 16.8706 73.2467 16.4855C73.0465 16.1005 72.9464 15.6504 72.9464 15.1354C72.9464 14.1653 73.2743 13.4027 73.9301 12.8476C74.5909 12.2925 75.502 12.015 76.6634 12.015C77.2341 12.015 77.7772 12.0825 78.2929 12.2175C78.8135 12.3526 79.3566 12.5426 79.9223 12.7876L79.1714 14.5953C78.5857 14.3553 78.1001 14.1878 77.7147 14.0928C77.3342 13.9977 76.9587 13.9502 76.5883 13.9502C76.1478 13.9502 75.8098 14.0528 75.5746 14.2578C75.3393 14.4628 75.2216 14.7303 75.2216 15.0604C75.2216 15.2654 75.2692 15.4454 75.3643 15.6004C75.4594 15.7504 75.6096 15.898 75.8149 16.043C76.0251 16.183 76.5182 16.438 77.2941 16.8081C78.3204 17.2981 79.0237 17.7907 79.4042 18.2857C79.7847 18.7758 79.9749 19.3784 79.9749 20.0935V20.0935Z" fill="black"/>
<path d="M86.1999 23.1388H83.8721V14.1077H80.891V12.1725H89.181V14.1077H86.1999V23.1388Z" fill="black"/>
<path d="M90.8855 23.1388V12.1725H93.2133V23.1388H90.8855Z" fill="black"/>
<path d="M100.227 23.1388H97.8991V14.1077H94.918V12.1725H103.208V14.1077H100.227V23.1388Z" fill="black"/>
<path d="M113.848 12.1725V19.2683C113.848 20.0784 113.666 20.7885 113.3 21.3986C112.94 22.0086 112.417 22.4762 111.731 22.8012C111.045 23.1263 110.234 23.2888 109.298 23.2888C107.886 23.2888 106.79 22.9287 106.009 22.2086C105.228 21.4836 104.837 20.4934 104.837 19.2383V12.1725H107.158V18.8858C107.158 19.7309 107.328 20.3509 107.668 20.746C108.009 21.141 108.572 21.3385 109.358 21.3385C110.119 21.3385 110.669 21.141 111.01 20.746C111.355 20.3459 111.528 19.7209 111.528 18.8708V12.1725H113.848Z" fill="black"/>
<path d="M120.772 23.1388H118.444V14.1077H115.463V12.1725H123.753V14.1077H120.772V23.1388Z" fill="black"/>
<path d="M135.422 17.6407C135.422 19.4559 134.971 20.851 134.07 21.8261C133.169 22.8013 131.878 23.2888 130.196 23.2888C128.514 23.2888 127.222 22.8013 126.321 21.8261C125.42 20.851 124.969 19.4509 124.969 17.6257C124.969 15.8004 125.42 14.4078 126.321 13.4477C127.227 12.4826 128.524 12 130.211 12C131.898 12 133.187 12.4851 134.078 13.4552C134.974 14.4253 135.422 15.8204 135.422 17.6407V17.6407ZM127.41 17.6407C127.41 18.8658 127.642 19.7884 128.108 20.4085C128.574 21.0285 129.269 21.3386 130.196 21.3386C132.053 21.3386 132.981 20.1059 132.981 17.6407C132.981 15.1704 132.058 13.9352 130.211 13.9352C129.284 13.9352 128.586 14.2478 128.116 14.8728C127.645 15.4929 127.41 16.4155 127.41 17.6407V17.6407Z" fill="black"/>
<path d="M143.997 23.1388H141.707V12.1725H148V14.0777H143.997V16.9055H147.722V18.8033H143.997V23.1388Z" fill="black"/>
<path d="M156.47 23.1388H150.147V12.1725H156.47V14.0777H152.475V16.4855H156.192V18.3907H152.475V21.2185H156.47V23.1388Z" fill="black"/>
<path d="M167.876 17.5506C167.876 19.3558 167.361 20.7385 166.329 21.6986C165.303 22.6587 163.819 23.1388 161.876 23.1388H158.768V12.1725H162.214C164.007 12.1725 165.398 12.645 166.389 13.5901C167.381 14.5353 167.876 15.8554 167.876 17.5506V17.5506ZM165.458 17.6106C165.458 15.2553 164.417 14.0777 162.335 14.0777H161.096V21.2185H162.094C164.337 21.2185 165.458 20.0159 165.458 17.6106Z" fill="black"/>
<path d="M176.474 23.1388H170.151V12.1725H176.474V14.0777H172.479V16.4855H176.196V18.3907H172.479V21.2185H176.474V23.1388Z" fill="black"/>
<path d="M181.1 17.0406H181.851C182.587 17.0406 183.13 16.918 183.48 16.673C183.831 16.428 184.006 16.0429 184.006 15.5179C184.006 14.9978 183.826 14.6278 183.465 14.4077C183.11 14.1877 182.557 14.0777 181.806 14.0777H181.1V17.0406ZM181.1 18.9308V23.1388H178.772V12.1725H181.971C183.463 12.1725 184.566 12.445 185.282 12.9901C185.998 13.5301 186.356 14.3527 186.356 15.4579C186.356 16.1029 186.178 16.678 185.823 17.1831C185.468 17.6831 184.964 18.0757 184.314 18.3607C185.966 20.826 187.042 22.4187 187.543 23.1388H184.959L182.339 18.9308H181.1Z" fill="black"/>
<path d="M195.645 23.1388L194.849 20.5285H190.847L190.051 23.1388H187.543L191.417 12.1276H194.263L198.153 23.1388H195.645ZM194.293 18.5783C193.557 16.213 193.142 14.8754 193.047 14.5653C192.957 14.2553 192.892 14.0103 192.852 13.8303C192.686 14.4703 192.213 16.053 191.432 18.5783H194.293Z" fill="black"/>
<path d="M199.527 23.1388V12.1725H201.855V21.2185H206.308V23.1388H199.527Z" fill="black"/>
<path d="M58.6794 32.2263C58.3962 32.2263 58.1521 32.3061 57.947 32.4656C57.7452 32.6251 57.5792 32.8448 57.449 33.1248C57.322 33.4014 57.2276 33.7188 57.1658 34.0769C57.1072 34.4317 57.0779 34.8061 57.0779 35.2C57.0779 35.8119 57.1446 36.3393 57.2781 36.782C57.4148 37.2247 57.6069 37.5665 57.8542 37.8074C58.1016 38.045 58.393 38.1638 58.7283 38.1638C58.9301 38.1638 59.1205 38.1378 59.2996 38.0857C59.4786 38.0336 59.643 37.9701 59.7927 37.8953V38.5984C59.6365 38.6895 59.4623 38.7563 59.2703 38.7986C59.0782 38.8442 58.8682 38.8669 58.6404 38.8669C58.1554 38.8669 57.7354 38.7205 57.3806 38.4275C57.0258 38.1345 56.7524 37.7146 56.5603 37.1677C56.3682 36.6176 56.2722 35.9584 56.2722 35.1902C56.2722 34.6856 56.3194 34.212 56.4138 33.7693C56.5115 33.3266 56.658 32.936 56.8533 32.5974C57.0518 32.2589 57.3009 31.9952 57.6003 31.8064C57.8998 31.6143 58.2514 31.5183 58.655 31.5183C58.8894 31.5183 59.114 31.5492 59.3289 31.6111C59.547 31.6697 59.7553 31.7559 59.9539 31.8699L59.6755 32.5291C59.5258 32.4347 59.3679 32.3614 59.2019 32.3093C59.0359 32.254 58.8617 32.2263 58.6794 32.2263ZM62.322 33.3201C62.6866 33.3201 62.9861 33.4259 63.2205 33.6375C63.4581 33.849 63.6339 34.1339 63.7478 34.4919C63.865 34.85 63.9236 35.2488 63.9236 35.6882V36.2205H61.3699C61.3764 36.8878 61.4789 37.3891 61.6775 37.7244C61.8793 38.0597 62.182 38.2273 62.5857 38.2273C62.7778 38.2273 62.9666 38.198 63.1521 38.1394C63.3376 38.0808 63.5297 37.9864 63.7283 37.8562V38.53C63.5427 38.644 63.349 38.7286 63.1472 38.7839C62.9454 38.8393 62.7306 38.8669 62.5027 38.8669C62.0567 38.8669 61.6954 38.7481 61.4187 38.5105C61.142 38.2696 60.9402 37.9425 60.8132 37.5291C60.6895 37.1124 60.6277 36.642 60.6277 36.1179C60.6277 35.519 60.6912 35.0111 60.8181 34.5945C60.9451 34.1778 61.1339 33.8621 61.3845 33.6472C61.6384 33.4291 61.9509 33.3201 62.322 33.3201ZM62.322 33.9353C62.0388 33.9353 61.8175 34.0736 61.658 34.3503C61.4985 34.6238 61.4057 35.047 61.3796 35.6199H63.2205C63.2205 35.3171 63.1879 35.0388 63.1228 34.7849C63.061 34.5278 62.9633 34.3227 62.8298 34.1697C62.6996 34.0134 62.5304 33.9353 62.322 33.9353ZM66.4236 33.3103C66.9184 33.3103 67.2716 33.4682 67.4832 33.7839C67.6947 34.0997 67.8005 34.557 67.8005 35.156V38.7693H67.2292L67.1169 38.0076H67.0974C67.0128 38.1899 66.9119 38.3461 66.7947 38.4763C66.6775 38.6033 66.544 38.7009 66.3943 38.7693C66.2445 38.8344 66.072 38.8669 65.8767 38.8669C65.6 38.8669 65.3738 38.7937 65.198 38.6472C65.0222 38.5007 64.892 38.3087 64.8074 38.071C64.7227 37.8302 64.6804 37.5714 64.6804 37.2947C64.6804 36.7641 64.8334 36.3523 65.1394 36.0593C65.4454 35.7664 65.88 35.6069 66.4431 35.5808L67.0535 35.5417V35.1755C67.0535 34.7458 66.9949 34.4317 66.8777 34.2332C66.7605 34.0346 66.5717 33.9353 66.3113 33.9353C66.1615 33.9353 66.0037 33.9613 65.8376 34.0134C65.6749 34.0655 65.4975 34.1485 65.3054 34.2625L65.0662 33.696C65.268 33.5658 65.4828 33.4698 65.7107 33.408C65.9418 33.3429 66.1794 33.3103 66.4236 33.3103ZM67.0632 36.0935L66.5652 36.1277C66.1876 36.1505 65.906 36.2579 65.7205 36.45C65.5382 36.6388 65.447 36.9138 65.447 37.2751C65.447 37.6104 65.5072 37.8578 65.6277 38.0173C65.7481 38.1768 65.9141 38.2566 66.1257 38.2566C66.422 38.2566 66.6514 38.1134 66.8142 37.8269C66.9802 37.5404 67.0632 37.1449 67.0632 36.6404V36.0935ZM70.8914 33.3152C70.9662 33.3152 71.0411 33.3217 71.116 33.3347C71.1908 33.3445 71.269 33.3624 71.3503 33.3884L71.2332 34.1599C71.1746 34.1339 71.1127 34.116 71.0476 34.1062C70.9825 34.0964 70.9125 34.0916 70.8376 34.0916C70.6912 34.0916 70.5561 34.1404 70.4324 34.238C70.3119 34.3324 70.2078 34.4659 70.1199 34.6384C70.032 34.811 69.9636 35.0111 69.9148 35.239C69.8692 35.4669 69.8481 35.7126 69.8513 35.9763V38.7693H69.0994V33.408H69.6853L69.7878 34.3601H69.8367C69.9115 34.155 69.9994 33.9744 70.1003 33.8181C70.2013 33.6619 70.3168 33.5398 70.447 33.4519C70.5805 33.3608 70.7286 33.3152 70.8914 33.3152ZM73.533 33.3103C74.0278 33.3103 74.3809 33.4682 74.5925 33.7839C74.8041 34.0997 74.9099 34.557 74.9099 35.156V38.7693H74.3386L74.2263 38.0076H74.2068C74.1222 38.1899 74.0212 38.3461 73.9041 38.4763C73.7869 38.6033 73.6534 38.7009 73.5037 38.7693C73.3539 38.8344 73.1814 38.8669 72.9861 38.8669C72.7094 38.8669 72.4832 38.7937 72.3074 38.6472C72.1316 38.5007 72.0014 38.3087 71.9167 38.071C71.8321 37.8302 71.7898 37.5714 71.7898 37.2947C71.7898 36.7641 71.9428 36.3523 72.2488 36.0593C72.5548 35.7664 72.9893 35.6069 73.5525 35.5808L74.1628 35.5417V35.1755C74.1628 34.7458 74.1042 34.4317 73.9871 34.2332C73.8699 34.0346 73.6811 33.9353 73.4207 33.9353C73.2709 33.9353 73.113 33.9613 72.947 34.0134C72.7843 34.0655 72.6069 34.1485 72.4148 34.2625L72.1755 33.696C72.3774 33.5658 72.5922 33.4698 72.8201 33.408C73.0512 33.3429 73.2888 33.3103 73.533 33.3103ZM74.1726 36.0935L73.6746 36.1277C73.297 36.1505 73.0154 36.2579 72.8298 36.45C72.6475 36.6388 72.5564 36.9138 72.5564 37.2751C72.5564 37.6104 72.6166 37.8578 72.7371 38.0173C72.8575 38.1768 73.0235 38.2566 73.2351 38.2566C73.5313 38.2566 73.7608 38.1134 73.9236 37.8269C74.0896 37.5404 74.1726 37.1449 74.1726 36.6404V36.0935ZM74.6707 31.113V31.2009C74.6056 31.3083 74.5193 31.4304 74.4119 31.5671C74.3044 31.7006 74.1873 31.8389 74.0603 31.9822C73.9333 32.1222 73.8064 32.2556 73.6794 32.3826C73.5525 32.5095 73.4386 32.6186 73.3376 32.7097H72.8591V32.5974C72.9893 32.4184 73.1098 32.2442 73.2205 32.075C73.3311 31.9057 73.432 31.7413 73.5232 31.5818C73.6143 31.419 73.6973 31.2628 73.7722 31.113H74.6707Z" fill="black"/>
<path d="M24.2939 0.564331H15.2543C14.6303 0.564331 14.1244 1.06967 14.1244 1.69304V10.7227C14.1244 11.3461 14.6303 11.8515 15.2543 11.8515H24.2939C24.918 11.8515 25.4239 11.3461 25.4239 10.7227V1.69304C25.4239 1.06967 24.918 0.564331 24.2939 0.564331Z" fill="#2F9E41"/>
<path d="M37.8533 0.564331H28.8137C28.1896 0.564331 27.6837 1.06967 27.6837 1.69304V10.7227C27.6837 11.3461 28.1896 11.8515 28.8137 11.8515H37.8533C38.4773 11.8515 38.9832 11.3461 38.9832 10.7227V1.69304C38.9832 1.06967 38.4773 0.564331 37.8533 0.564331Z" fill="#2F9E41"/>
<path d="M10.7345 14.1089H1.69489C1.07084 14.1089 0.564941 14.6142 0.564941 15.2376V24.2673C0.564941 24.8907 1.07084 25.396 1.69489 25.396H10.7345C11.3585 25.396 11.8644 24.8907 11.8644 24.2673V15.2376C11.8644 14.6142 11.3585 14.1089 10.7345 14.1089Z" fill="#2F9E41"/>
<path d="M24.2939 14.1089H15.2543C14.6303 14.1089 14.1244 14.6142 14.1244 15.2376V24.2673C14.1244 24.8907 14.6303 25.396 15.2543 25.396H24.2939C24.918 25.396 25.4239 24.8907 25.4239 24.2673V15.2376C25.4239 14.6142 24.918 14.1089 24.2939 14.1089Z" fill="#2F9E41"/>
<path d="M10.7345 27.6534H1.69489C1.07084 27.6534 0.564941 28.1588 0.564941 28.7822V37.8119C0.564941 38.4352 1.07084 38.9406 1.69489 38.9406H10.7345C11.3585 38.9406 11.8644 38.4352 11.8644 37.8119V28.7822C11.8644 28.1588 11.3585 27.6534 10.7345 27.6534Z" fill="#2F9E41"/>
<path d="M24.2939 27.6534H15.2543C14.6303 27.6534 14.1244 28.1588 14.1244 28.7822V37.8119C14.1244 38.4352 14.6303 38.9406 15.2543 38.9406H24.2939C24.918 38.9406 25.4239 38.4352 25.4239 37.8119V28.7822C25.4239 28.1588 24.918 27.6534 24.2939 27.6534Z" fill="#2F9E41"/>
<path d="M37.8533 27.6534H28.8137C28.1896 27.6534 27.6837 28.1588 27.6837 28.7822V37.8119C27.6837 38.4352 28.1896 38.9406 28.8137 38.9406H37.8533C38.4773 38.9406 38.9832 38.4352 38.9832 37.8119V28.7822C38.9832 28.1588 38.4773 27.6534 37.8533 27.6534Z" fill="#2F9E41"/>
<path d="M10.7345 41.198H1.69489C1.07084 41.198 0.564941 41.7033 0.564941 42.3267V51.3564C0.564941 51.9798 1.07084 52.4851 1.69489 52.4851H10.7345C11.3585 52.4851 11.8644 51.9798 11.8644 51.3564V42.3267C11.8644 41.7033 11.3585 41.198 10.7345 41.198Z" fill="#2F9E41"/>
<path d="M24.2939 41.198H15.2543C14.6303 41.198 14.1244 41.7033 14.1244 42.3267V51.3564C14.1244 51.9798 14.6303 52.4851 15.2543 52.4851H24.2939C24.918 52.4851 25.4239 51.9798 25.4239 51.3564V42.3267C25.4239 41.7033 24.918 41.198 24.2939 41.198Z" fill="#2F9E41"/>
<path d="M6.21472 12.4158C9.64702 12.4158 12.4294 9.63646 12.4294 6.20792C12.4294 2.77938 9.64702 0 6.21472 0C2.78243 0 0 2.77938 0 6.20792C0 9.63646 2.78243 12.4158 6.21472 12.4158Z" fill="#CD191E"/>
</svg>
