<svg width="230" height="74" viewBox="0 0 230 74" fill="none" xmlns="http://www.w3.org/2000/svg">
<g clip-path="url(#clip0_111_1813)">
<path d="M47.2982 59.7531H58.0451V28.4889H47.2982V59.7531ZM61.7645 7.21424H54.522V14.4378H61.7645V7.21424ZM21.1435 10.7282H10.7564V19.795H20.4029C26.524 19.795 30.0471 22.7543 30.0471 28.3048C30.0471 33.8554 26.524 36.9988 20.4029 36.9988H10.7564V19.9884H0.00952148V59.7531H10.7564V46.0633H20.959C33.3857 46.0633 40.6211 39.4035 40.6211 27.9343C40.6211 17.2038 33.5726 10.7282 21.1435 10.7282ZM68.9999 0.00927734H47.2982V21.6428H68.9999V0.00927734ZM65.4745 17.9518H51.0082V3.51389H65.4745V17.9518ZM128.54 10.7282H118.709V19.795H127.982C134.103 19.795 137.628 22.7543 137.628 28.3048C137.628 33.8554 134.103 36.9988 127.982 36.9988H118.709V19.9884H107.962V59.7531H118.709V46.0633H128.54C140.967 46.0633 148.2 39.4035 148.2 27.9343C148.2 17.2038 140.967 10.7282 128.54 10.7282ZM218.87 22.1997L209.595 45.5017L200.32 22.1997H189.192L204.03 59.7531L198.28 73.9976H209.595L229.998 22.1997H218.87ZM170.645 22.0133C164.152 22.0133 159.143 23.493 153.578 26.2682L156.919 33.6689C160.814 31.4483 164.708 30.3391 168.231 30.3391C173.425 30.3391 176.023 32.5598 176.023 36.6306V37.3716H165.629C156.354 37.3716 151.347 41.6266 151.347 48.6568C151.347 55.5005 156.169 60.3077 164.33 60.3077C169.523 60.3077 173.233 58.4599 176.2 55.3141V59.3826H186.774V34.9645C186.422 27.0092 180.66 22.0133 170.645 22.0133ZM176.953 47.1794C175.84 50.3228 172.687 52.914 168.234 52.914C164.526 52.914 162.299 51.0638 162.299 48.1045C162.299 45.1451 164.339 43.8496 168.42 43.8496H176.953V47.1794ZM85.5058 51.6138C80.3122 51.6138 76.6045 47.5429 76.6045 41.4378C76.6045 35.5191 80.3122 31.4483 85.5058 31.4483C89.2158 31.4483 91.9983 32.9279 94.0402 35.5191L101.283 30.3391C97.9441 25.3432 92.1946 22.3838 84.9591 22.3838C73.6445 22.1997 65.8553 29.9686 65.8553 41.4378C65.8553 52.907 73.6445 60.4941 84.9591 60.4941C92.7506 60.4941 98.5095 57.3484 101.654 52.1684L94.2341 47.1747C92.3698 50.1341 89.4027 51.6138 85.5058 51.6138Z" fill="#21C25E"/>
</g>
<defs>
<clipPath id="clip0_111_1813">
<rect width="230" height="74" fill="white"/>
</clipPath>
</defs>
</svg>
